<svg width="15" height="16" viewBox="0 0 15 16" fill="none" xmlns="http://www.w3.org/2000/svg">
<g clip-path="url(#clip0_2185_358)">
<path d="M7.20521 15.522C6.98536 15.4548 6.85227 15.2941 6.73132 15.1092C6.09933 14.1426 5.32213 13.2941 4.54676 12.4441C3.91992 11.757 3.29529 11.0673 2.75963 10.3048C2.14492 9.42902 1.70191 8.47939 1.54014 7.41395C1.40007 6.49042 1.47323 5.58049 1.75448 4.69005C2.10999 3.56431 2.75374 2.62645 3.66073 1.87461C4.52323 1.15953 5.5144 0.715417 6.62838 0.561005C8.15632 0.349241 9.57727 0.654388 10.8545 1.51615C12.1707 2.40402 13.0232 3.63196 13.3762 5.1849C13.6501 6.39005 13.5537 7.57277 13.1015 8.72571C12.7104 9.7235 12.0923 10.5775 11.3964 11.3779C10.7159 12.161 10.0071 12.9202 9.33389 13.7092C8.95374 14.1548 8.61404 14.6356 8.26882 15.1099C8.1394 15.2878 8.01293 15.4544 7.79345 15.5213C7.59749 15.522 7.40154 15.522 7.20521 15.522ZM7.49419 14.1404C7.69897 13.8717 7.87544 13.6128 8.07948 13.3779C8.86294 12.4768 9.65963 11.5871 10.4431 10.6864C11.0548 9.98343 11.6203 9.2474 11.9769 8.37461C12.4269 7.2724 12.4791 6.14961 12.1115 5.0202C11.728 3.84299 10.9879 2.93748 9.9133 2.31725C8.84713 1.70218 7.6997 1.52351 6.49786 1.77645C5.27874 2.03306 4.29198 2.67461 3.56808 3.68748C2.69271 4.91211 2.44639 6.26836 2.80632 7.72792C3.00963 8.55328 3.4247 9.27975 3.95044 9.93821C4.38977 10.4882 4.85301 11.0202 5.32249 11.5452C6.06919 12.3801 6.83463 13.1992 7.49419 14.1404Z" fill="#303030" fill-opacity="0.52"/>
<path d="M7.53351 2.84186C9.28131 2.87201 10.7534 4.08414 11.1023 5.78818C11.2229 6.37752 11.1971 6.96502 11.0265 7.5437C10.9328 7.86171 10.6269 8.04186 10.3199 7.96576C10.0092 7.88892 9.8269 7.59701 9.88535 7.26796C9.91697 7.09039 9.96072 6.91392 9.97984 6.73487C10.0931 5.67605 9.49307 4.66686 8.49234 4.22127C7.53756 3.79627 6.36807 4.04039 5.66587 4.82311C5.02543 5.53708 4.83057 6.37017 5.128 7.27752C5.42874 8.19517 6.08572 8.75399 7.03499 8.95951C7.4269 9.04443 7.8133 8.9937 8.19969 8.91061C8.5405 8.83745 8.83646 9.01796 8.9133 9.33267C8.99271 9.65693 8.81035 9.95289 8.47138 10.0492C6.68646 10.5577 4.71844 9.56282 4.07101 7.82568C3.37506 5.9573 4.22175 3.9459 6.04638 3.14186C6.51881 2.93377 7.01771 2.84149 7.53351 2.84186Z" fill="#303030" fill-opacity="0.52"/>
</g>
<defs>
<clipPath id="clip0_2185_358">
<rect width="15" height="15" fill="white" transform="translate(0 0.5)"/>
</clipPath>
</defs>
</svg>
