<svg width="10" height="10" viewBox="0 0 10 10" fill="none" xmlns="http://www.w3.org/2000/svg">
<g clip-path="url(#clip0_2115_497)">
<path d="M2.75117 -0.011694C2.57459 0.0344448 2.41609 0.108 2.29831 0.256695C2.10092 0.505834 2.09678 0.86764 2.29573 1.1172C2.33423 1.1655 2.37678 1.21092 2.4205 1.25464C3.63789 2.47253 4.85562 3.69006 6.07362 4.90731C6.10109 4.93475 6.13228 4.95847 6.19631 5.01378C6.14737 5.04256 6.10748 5.05633 6.08059 5.08317C4.85264 6.30895 3.62636 7.53636 2.39845 8.76217C2.18198 8.97828 2.09137 9.22564 2.18414 9.52608C2.32206 9.97264 2.89192 10.1539 3.26203 9.86867C3.30326 9.83692 3.34273 9.80231 3.37953 9.76553C4.79123 8.35453 6.2027 6.94333 7.6137 5.53161C7.87739 5.26778 7.93142 4.93989 7.75612 4.64231C7.71375 4.57042 7.65456 4.5065 7.59506 4.44695C6.22151 3.07158 4.84606 1.69814 3.47353 0.321778C3.32142 0.16925 3.16448 0.0331669 2.94687 -0.0117502C2.88164 -0.0116949 2.81639 -0.011694 2.75117 -0.011694Z" fill="#303030"/>
</g>
<defs>
<clipPath id="clip0_2115_497">
<rect width="10" height="10" fill="white" transform="matrix(1 0 0 -1 0 10)"/>
</clipPath>
</defs>
</svg>
