<svg width="15" height="16" viewBox="0 0 15 16" fill="none" xmlns="http://www.w3.org/2000/svg">
<path d="M14.5453 6.26284C14.5453 7.06247 14.5453 7.86211 14.5453 8.66174C14.5376 8.67792 14.5254 8.69299 14.5232 8.7099C14.4673 9.0963 14.2927 9.42093 14.0276 9.70365C13.9839 9.75034 13.9552 9.83012 13.9541 9.89483C13.9468 10.3404 13.9567 10.7864 13.9445 11.232C13.9365 11.5195 13.6971 11.7353 13.4122 11.7426C13.1379 11.7496 12.8934 11.5452 12.8618 11.2658C12.8449 11.1158 12.8519 10.9632 12.8508 10.8117C12.8493 10.6298 12.8504 10.4481 12.8504 10.2603C11.9328 10.2849 11.2695 9.91247 10.8846 9.08122C10.3232 9.33196 9.76881 9.32792 9.21991 9.07975C8.86881 9.83711 8.28719 10.2511 7.46624 10.2525C6.64712 10.254 6.0633 9.84225 5.7144 9.10402C4.90374 9.32645 4.73462 9.32461 4.07874 9.08674C3.52102 10.0007 3.33388 10.1169 2.16477 10.2706C2.16477 11.3092 2.16477 12.3485 2.16477 13.3996C2.23425 13.3996 2.29307 13.3996 2.3519 13.3996C6.18131 13.3996 10.0111 13.3996 13.8405 13.3996C13.9001 13.3996 13.96 13.3978 14.0192 13.4029C14.3162 13.4275 14.5453 13.7154 14.5045 14.011C14.4611 14.3253 14.2317 14.5022 13.8651 14.5022C9.62286 14.5025 5.38058 14.5025 1.1383 14.5014C1.06991 14.5014 1.00043 14.4974 0.933517 14.4842C0.67359 14.4327 0.489031 14.204 0.491604 13.9437C0.494178 13.6827 0.683149 13.4562 0.939766 13.4059C0.974325 13.3992 1.00888 13.393 1.04638 13.386C1.04896 13.3555 1.05263 13.3331 1.05263 13.3106C1.053 12.1617 1.0541 11.0128 1.04969 9.86431C1.04932 9.80953 1.01182 9.74372 0.971751 9.70218C0.628737 9.34336 0.454105 8.91909 0.455576 8.4213C0.457414 7.80108 0.455576 7.18049 0.455944 6.56027C0.457047 5.54777 1.07837 4.73417 2.05263 4.47865C2.1383 4.45622 2.16183 4.42461 2.16035 4.34115C2.15631 4.04703 2.15558 3.75292 2.16035 3.4588C2.16844 2.95843 2.46771 2.51578 2.93646 2.34299C3.08241 2.28931 3.1269 2.22608 3.12285 2.07277C3.1144 1.74336 3.35263 1.50255 3.66182 1.49961C3.96697 1.4963 4.20557 1.73784 4.21807 2.06431C4.22102 2.13637 4.21844 2.2088 4.21844 2.27497C4.87359 2.49372 5.17506 2.91394 5.17616 3.59042C5.17653 3.82019 5.1758 4.04997 5.17653 4.27975C5.17653 4.32314 5.18241 4.36689 5.18535 4.40953C5.45925 4.40953 5.71844 4.40953 5.9894 4.40953C5.9894 4.10365 5.98903 3.80586 5.9894 3.50843C5.98977 3.25402 6.05447 3.01799 6.19565 2.80549C6.3758 2.5338 6.62947 2.36431 6.9508 2.27718C6.9508 2.19152 6.94749 2.10916 6.95153 2.02755C6.9655 1.7338 7.20999 1.49997 7.50043 1.49997C7.7916 1.49997 8.03499 1.73269 8.04933 2.02755C8.05337 2.10953 8.05006 2.19152 8.05006 2.27461C8.09013 2.28821 8.11954 2.29814 8.14932 2.30843C8.67028 2.48527 9.00153 2.9338 9.01035 3.48122C9.01477 3.74777 9.01146 4.01431 9.01146 4.28086C9.01146 4.32461 9.01146 4.36799 9.01146 4.40953C9.29271 4.40953 9.55227 4.40953 9.82432 4.40953C9.82432 4.34667 9.82396 4.29262 9.82432 4.23821C9.82653 3.95328 9.81183 3.66725 9.83536 3.38417C9.87874 2.86284 10.1659 2.51358 10.6475 2.3213C10.689 2.30475 10.7317 2.29152 10.7839 2.27314C10.7839 2.18747 10.778 2.10475 10.785 2.02314C10.8093 1.7349 11.0166 1.52608 11.2975 1.50144C11.5445 1.47975 11.7916 1.64887 11.8585 1.89703C11.8809 1.97939 11.8828 2.06983 11.8802 2.15622C11.8773 2.24152 11.899 2.28343 11.9876 2.31321C12.5207 2.49299 12.8365 2.93637 12.8412 3.50071C12.8438 3.77644 12.846 4.05218 12.8394 4.32792C12.8372 4.42424 12.8662 4.45696 12.9611 4.48306C13.7453 4.69924 14.2508 5.20328 14.478 5.986C14.5052 6.07644 14.5232 6.17019 14.5453 6.26284ZM1.55594 7.46284C1.55594 7.77975 1.55484 8.09703 1.55631 8.41395C1.55778 8.83931 1.87763 9.15218 2.31183 9.15586C2.74565 9.15953 3.07212 8.85071 3.0791 8.42681C3.08241 8.21542 3.07763 8.00402 3.08057 7.79262C3.08462 7.47644 3.27028 7.24667 3.55116 7.20439C3.83168 7.16247 4.06183 7.3338 4.1758 7.62902C4.228 7.76394 4.31587 7.90402 4.42653 7.99409C4.82984 8.32314 5.4155 8.16542 5.63094 7.68527C5.75484 7.40953 5.9905 7.27571 6.25631 7.33086C6.53131 7.38784 6.69933 7.60623 6.70116 7.911C6.70227 8.09483 6.69896 8.27865 6.70227 8.46247C6.70925 8.84115 7.0291 9.14189 7.43572 9.15512C7.84602 9.16872 8.19381 8.87939 8.22028 8.50181C8.23536 8.28637 8.24675 8.07093 8.26477 7.85586C8.28903 7.56431 8.46219 7.37093 8.73388 7.32497C8.98388 7.2827 9.2155 7.4224 9.33241 7.68637C9.47359 8.00475 9.75484 8.18049 10.096 8.16358C10.4328 8.14703 10.6916 7.94152 10.8012 7.60439C10.8916 7.32571 11.1401 7.16321 11.4122 7.20475C11.6861 7.24667 11.8758 7.47277 11.8787 7.76615C11.8809 7.99115 11.8765 8.21652 11.8802 8.44152C11.8868 8.85475 12.2203 9.15659 12.6644 9.15586C13.1081 9.15512 13.4409 8.85181 13.4431 8.43674C13.4468 7.79814 13.4479 7.15953 13.4442 6.52093C13.4409 5.94924 13.0104 5.5213 12.4376 5.5213C9.14492 5.52019 5.85263 5.51983 2.55999 5.5213C1.9894 5.52166 1.56182 5.95292 1.55704 6.52571C1.55374 6.83784 1.55594 7.15034 1.55594 7.46284ZM7.90705 4.41211C7.90705 4.09703 7.91109 3.78196 7.90153 3.46799C7.90043 3.42939 7.82727 3.36321 7.78425 3.36064C7.59712 3.3485 7.40815 3.3474 7.22138 3.36027C7.1758 3.36358 7.09896 3.43417 7.09749 3.47571C7.08682 3.786 7.09161 4.09667 7.09161 4.41247C7.36808 4.41211 7.62837 4.41211 7.90705 4.41211ZM3.25999 4.40659C3.54087 4.40659 3.803 4.40659 4.07359 4.40659C4.07359 4.09409 4.07506 3.79225 4.07249 3.49005C4.07175 3.40291 4.01844 3.35475 3.93205 3.35365C3.75374 3.35144 3.57506 3.35071 3.39675 3.35439C3.31183 3.35622 3.25999 3.40328 3.25999 3.49299C3.25925 3.79519 3.25999 4.09703 3.25999 4.40659ZM11.7409 4.41211C11.7409 4.0985 11.7412 3.79667 11.7405 3.49519C11.7405 3.40586 11.6905 3.35659 11.6052 3.35512C11.4225 3.35144 11.2387 3.3463 11.0567 3.3599C11.0115 3.36321 10.9357 3.4338 10.9346 3.47534C10.9243 3.78564 10.9291 4.0963 10.9291 4.41211C11.2015 4.41211 11.4611 4.41211 11.7409 4.41211Z" fill="#303030" fill-opacity="0.52"/>
<path d="M7.48641 12.2772C6.49597 12.2772 5.50516 12.2779 4.51472 12.2764C4.26325 12.2761 4.05553 12.1209 3.98605 11.8915C3.9173 11.665 3.9923 11.4033 4.19634 11.286C4.31289 11.2191 4.46252 11.1798 4.59781 11.179C5.90921 11.1713 7.22097 11.1742 8.53274 11.1742C9.17465 11.1742 9.81693 11.1713 10.4588 11.1757C10.8405 11.1783 11.0941 11.4798 11.0261 11.8378C10.9765 12.0992 10.7566 12.2761 10.4721 12.2768C9.50884 12.2783 8.54597 12.2775 7.58274 12.2775C7.55039 12.2772 7.5184 12.2772 7.48641 12.2772Z" fill="#303030" fill-opacity="0.52"/>
</svg>
