<svg width="15" height="16" viewBox="0 0 15 16" fill="none" xmlns="http://www.w3.org/2000/svg">
<g clip-path="url(#clip0_2183_271)">
<path d="M3.43945 0.499994C3.70117 0.588276 3.87109 0.757416 3.91094 1.05546C3.96992 1.05546 4.02656 1.05546 4.08321 1.05546C7.13867 1.05546 10.1941 1.05546 13.25 1.05546C13.6008 1.05546 13.8414 1.22343 13.8918 1.52812C13.9109 1.64296 13.8902 1.77148 13.8602 1.88671C13.5168 3.20742 13.1672 4.52656 12.823 5.84726C12.8047 5.91796 12.8066 6.00195 12.8242 6.07343C12.9117 6.42851 13.0082 6.78085 13.1 7.13476C13.1934 7.49413 13.0289 7.80585 12.6992 7.89726C12.375 7.98749 12.0695 7.79531 11.973 7.4371C11.8586 7.01367 11.7371 6.59179 11.6395 6.16445C11.6074 6.02421 11.6121 5.86132 11.6481 5.72148C11.9336 4.60742 12.2305 3.49609 12.5238 2.38359C12.5363 2.33671 12.5453 2.28945 12.5578 2.23398C9.67734 2.23398 6.80391 2.23398 3.91914 2.23398C3.91914 4.70546 3.91914 7.17812 3.91914 9.67304C3.97617 9.67304 4.03711 9.67304 4.09805 9.67304C7.14375 9.67304 10.1895 9.67304 13.2355 9.67304C13.5875 9.67304 13.8117 9.82734 13.8887 10.1195C13.9813 10.4703 13.7246 10.8238 13.3621 10.8434C13.3086 10.8461 13.2551 10.8449 13.2012 10.8449C10.175 10.8449 7.14844 10.8449 4.12227 10.8449C4.05938 10.8449 3.9961 10.8449 3.90781 10.8449C3.90781 10.9066 3.90781 10.9625 3.90781 11.0184C3.90781 12.2684 3.90117 13.5184 3.91172 14.7684C3.91485 15.1316 3.78945 15.3801 3.43984 15.4996C3.36172 15.4996 3.28399 15.4996 3.20586 15.4996C2.86367 15.3836 2.73399 15.1437 2.73438 14.7844C2.73984 10.2609 2.73984 5.73789 2.73438 1.21445C2.73399 0.855463 2.8625 0.614447 3.20586 0.499603C3.28359 0.499994 3.36172 0.499994 3.43945 0.499994Z" fill="#303030" fill-opacity="0.52"/>
</g>
<defs>
<clipPath id="clip0_2183_271">
<rect width="15" height="15" fill="white" transform="translate(0 0.5)"/>
</clipPath>
</defs>
</svg>
