<svg width="15" height="16" viewBox="0 0 15 16" fill="none" xmlns="http://www.w3.org/2000/svg">
<g clip-path="url(#clip0_2188_471)">
<path d="M14.9997 1.96484C14.3455 3.98604 13.6919 6.00752 13.0371 8.02842C12.8147 8.71455 12.5924 9.40068 12.3668 10.0859C12.264 10.3982 11.9804 10.5693 11.6883 10.5046C11.3262 10.4243 11.1375 10.0854 11.257 9.71475C11.5307 8.86572 11.8081 8.01846 12.0841 7.17031C12.6542 5.41865 13.2249 3.66699 13.7915 1.91416C13.8114 1.85264 13.8179 1.75273 13.7833 1.71728C13.749 1.68242 13.6482 1.68828 13.587 1.7082C10.2999 2.77256 7.01396 3.84043 3.72773 4.90772C2.94463 5.16201 2.16094 5.41514 1.37754 5.66914C1.33594 5.68262 1.28818 5.68936 1.25508 5.71484C1.22051 5.7415 1.17891 5.78721 1.17979 5.82383C1.18066 5.85723 1.22754 5.90586 1.26475 5.91963C1.54775 6.02539 1.8334 6.12412 2.11816 6.2249C3.05977 6.5583 4.00195 6.89053 4.94267 7.22715C5.03349 7.25967 5.10381 7.25322 5.1876 7.20781C6.83848 6.31367 8.49375 5.42803 10.1408 4.52715C10.5794 4.28721 11.0446 4.56348 11.0522 4.97393C11.0546 5.11103 11.0036 5.26396 10.9345 5.38525C10.0345 6.96055 9.12744 8.53203 8.21836 10.1023C8.16182 10.2002 8.15625 10.2799 8.19434 10.3854C8.6502 11.651 9.0999 12.9187 9.55547 14.1843C9.5751 14.2391 9.63398 14.2795 9.67471 14.3267C9.71953 14.276 9.78574 14.2326 9.80566 14.1734C9.9709 13.6839 10.1253 13.1911 10.2876 12.7004C10.3761 12.4329 10.5943 12.2753 10.8568 12.2779C11.1091 12.2806 11.3388 12.4396 11.4018 12.6866C11.4305 12.7991 11.4343 12.9339 11.4009 13.044C11.2403 13.5758 11.0707 14.1052 10.8896 14.6305C10.735 15.0793 10.4139 15.3573 9.95156 15.4701C9.92461 15.4769 9.89912 15.4903 9.87305 15.5006C9.73623 15.5006 9.59971 15.5006 9.46289 15.5006C9.43682 15.4903 9.41162 15.4771 9.38467 15.4701C8.93877 15.352 8.62793 15.089 8.47148 14.6466C8.03086 13.4023 7.58467 12.1602 7.14463 10.9159C7.1083 10.8134 7.06201 10.7744 6.94834 10.7756C6.36299 10.782 5.77734 10.78 5.1917 10.7782C4.77246 10.7768 4.53867 10.5421 4.53808 10.1255C4.53721 9.56914 4.53516 9.01309 4.54014 8.45674C4.54101 8.35801 4.51348 8.31377 4.41738 8.28008C3.22266 7.86084 2.03057 7.4334 0.835547 7.01504C0.495997 6.89609 0.2625 6.67168 0.11543 6.35264C0.0650391 6.24336 0.037793 6.12354 0 6.00869C0 5.88184 0 5.75469 0 5.62783C0.009375 5.60615 0.0219724 5.58535 0.0272459 5.56279C0.137988 5.07441 0.431542 4.74893 0.905566 4.59336C1.88613 4.27139 2.86846 3.9541 3.85049 3.63623C7.07812 2.58975 10.3066 1.54502 13.5349 0.5C13.6617 0.5 13.7889 0.5 13.9157 0.5C13.9556 0.51377 13.9951 0.52959 14.0355 0.541309C14.4814 0.671094 14.7817 0.955273 14.9364 1.39268C14.9619 1.46475 14.9789 1.53975 14.9997 1.61357C14.9997 1.73047 14.9997 1.84766 14.9997 1.96484ZM8.91885 6.54336C8.88281 6.54922 8.87314 6.54834 8.86582 6.55215C7.84072 7.10439 6.81533 7.65635 5.79287 8.21328C5.75098 8.23613 5.71377 8.30908 5.71289 8.35947C5.70615 8.73975 5.70908 9.12031 5.70996 9.50088C5.70996 9.53281 5.71846 9.56475 5.72432 9.60547C6.18574 9.60547 6.63896 9.60811 7.0916 9.60078C7.1332 9.6002 7.18652 9.54248 7.2126 9.49854C7.40654 9.17158 7.59521 8.8417 7.78506 8.5124C8.15947 7.8626 8.53359 7.2125 8.91885 6.54336Z" fill="#303030" fill-opacity="0.52"/>
</g>
<defs>
<clipPath id="clip0_2188_471">
<rect width="15" height="15" fill="white" transform="translate(0 0.5)"/>
</clipPath>
</defs>
</svg>
