<svg width="15" height="16" viewBox="0 0 15 16" fill="none" xmlns="http://www.w3.org/2000/svg">
<path d="M0.0124512 3.78191C0.0344824 3.68289 0.0547558 3.58348 0.0787402 3.48496C0.32999 2.45281 1.25952 1.70418 2.32315 1.70266C5.77362 1.69773 9.22409 1.6966 12.6746 1.70301C13.945 1.70535 14.9785 2.74777 14.9839 4.02117C14.9908 5.68656 14.9862 7.35199 14.9854 9.01738C14.9852 9.38523 14.7369 9.6459 14.3952 9.64324C14.061 9.64066 13.8166 9.38066 13.8164 9.02086C13.8155 7.39453 13.8162 5.76816 13.8159 4.14183C13.8158 3.35918 13.3307 2.87262 12.5488 2.87254C9.18116 2.87219 5.81355 2.87215 2.44593 2.87258C1.66554 2.87266 1.18233 3.36008 1.1823 4.14527C1.18214 6.7191 1.1821 9.29293 1.18233 11.8667C1.18241 12.6414 1.66847 13.1316 2.43925 13.1317C5.81663 13.1323 9.19397 13.1324 12.5714 13.1316C13.3018 13.1314 13.7776 12.6748 13.8165 11.9421C13.8337 11.6171 14.0892 11.3709 14.4064 11.3737C14.7293 11.3766 14.9809 11.6347 14.9856 11.9678C15.0027 13.1845 13.9785 14.2599 12.7626 14.3018C12.7091 14.3036 12.6555 14.3041 12.6018 14.3041C9.20011 14.3042 5.79835 14.3053 2.39663 14.3035C1.28374 14.3029 0.36499 13.6005 0.088037 12.5471C0.0597948 12.4396 0.0375683 12.3306 0.0125293 12.2224C0.0124511 9.40886 0.0124512 6.59539 0.0124512 3.78191Z" fill="#303030" fill-opacity="0.52"/>
<path d="M9.47815 8.00305C10.3016 8.71668 11.1086 9.41598 11.9155 10.1152C12.004 10.1919 12.093 10.2679 12.1809 10.3452C12.4558 10.5866 12.4955 10.9492 12.2752 11.2027C12.0521 11.4594 11.6937 11.4738 11.4156 11.233C10.5308 10.4669 9.64713 9.69949 8.76299 8.93266C8.70788 8.88488 8.65229 8.8377 8.58409 8.77922C8.37667 8.95781 8.17045 9.13414 7.96557 9.31199C7.63112 9.6023 7.36585 9.60262 7.03538 9.31383C6.84077 9.14375 6.64432 8.97582 6.44842 8.80727C6.44139 8.80121 6.43143 8.79856 6.40663 8.78633C6.21042 8.95598 6.0085 9.13012 5.80706 9.30473C5.06643 9.94672 4.32674 10.5898 3.58503 11.2305C3.22467 11.5418 2.72159 11.4115 2.60338 10.9748C2.53713 10.7302 2.61276 10.5232 2.80378 10.3578C3.611 9.65859 4.41807 8.95922 5.2251 8.25977C5.32006 8.17746 5.4144 8.09441 5.51995 8.00211C5.27198 7.78625 5.0344 7.57867 4.796 7.37203C4.13643 6.80027 3.4762 6.2293 2.81698 5.65715C2.53991 5.41672 2.50174 5.05688 2.72374 4.80074C2.94592 4.54438 3.30389 4.53012 3.58303 4.7718C4.82546 5.84746 6.0667 6.92445 7.30842 8.0009C7.36721 8.05188 7.42643 8.10238 7.496 8.16219C7.5387 8.12793 7.58038 8.09676 7.61963 8.06273C8.87975 6.97023 10.1442 5.8827 11.3968 4.78164C11.7769 4.44746 12.2874 4.62094 12.394 5.02621C12.462 5.28504 12.3744 5.49316 12.1754 5.66481C11.5071 6.24129 10.8405 6.81988 10.1735 7.39793C9.94577 7.59535 9.71877 7.79359 9.47815 8.00305Z" fill="#303030" fill-opacity="0.52"/>
</svg>
