<svg width="15" height="16" viewBox="0 0 15 16" fill="none" xmlns="http://www.w3.org/2000/svg">
<g clip-path="url(#clip0_2188_420)">
<path d="M14.9696 10.3437C14.9012 10.4535 14.8524 10.5844 14.7606 10.6683C14.5844 10.8289 14.3672 10.8508 14.1462 10.757C13.92 10.6609 13.8118 10.4766 13.8032 10.2394C13.7934 9.97147 13.8001 9.70233 13.8001 9.43397C13.8001 8.46718 13.8001 7.50077 13.8001 6.53397C13.8001 6.48124 13.8001 6.4285 13.8001 6.36718C9.58717 6.36718 5.38522 6.36718 1.16842 6.36718C1.16842 6.42421 1.16842 6.47616 1.16842 6.5285C1.16842 8.71053 1.16803 10.893 1.16842 13.075C1.16842 13.8344 1.66256 14.3269 2.42389 14.3269C5.80045 14.3273 9.17701 14.3273 12.5536 14.3269C13.2821 14.3269 13.7626 13.8683 13.8005 13.139C13.8153 12.8523 14.0118 12.625 14.286 12.5762C14.5559 12.5281 14.8212 12.6797 14.9313 12.9449C14.9442 12.9762 14.9571 13.0074 14.9696 13.0387C14.9696 13.1656 14.9696 13.2926 14.9696 13.4195C14.961 13.4414 14.9481 13.4629 14.9446 13.4855C14.802 14.3476 14.3294 14.9594 13.5356 15.3105C13.3251 15.4035 13.0891 15.4383 12.8645 15.5C9.27779 15.5 5.69108 15.5 2.10436 15.5C2.07662 15.4914 2.04967 15.4789 2.02155 15.475C0.852014 15.3035 0.00123294 14.3328 6.10603e-05 13.1531C-0.00267331 10.1086 -0.00579879 7.06405 0.00201371 4.01952C0.00435746 3.11718 0.420763 2.43319 1.19303 1.97264C1.53404 1.76952 1.90983 1.67382 2.30748 1.67108C2.55866 1.66952 2.80983 1.67069 3.0692 1.67069C3.0692 1.50389 3.0692 1.35819 3.0692 1.2121C3.0692 0.796863 3.15983 0.658582 3.53717 0.499207C3.61529 0.499207 3.69303 0.499207 3.77115 0.499207C4.14772 0.658972 4.23873 0.797644 4.23912 1.2121C4.23912 1.36132 4.23912 1.51053 4.23912 1.65975C5.12623 1.65975 5.9942 1.65975 6.87076 1.65975C6.87076 1.5035 6.87076 1.3578 6.87076 1.2121C6.87076 0.797253 6.96139 0.658971 7.33873 0.499596C7.41686 0.499596 7.49459 0.499596 7.57272 0.499596C7.94928 0.659362 8.04029 0.798034 8.04068 1.21249C8.04068 1.36171 8.04068 1.51093 8.04068 1.66014C8.93756 1.66014 9.81529 1.66014 10.7016 1.66014C10.7016 1.50389 10.7016 1.35819 10.7016 1.21249C10.7016 0.797643 10.7922 0.659362 11.1696 0.499987C11.2477 0.499987 11.3254 0.499987 11.4036 0.499987C11.7801 0.659753 11.8712 0.798425 11.8715 1.21327C11.8715 1.36249 11.8715 1.51171 11.8715 1.67147C12.1481 1.67147 12.4055 1.66913 12.663 1.67186C13.7235 1.68319 14.6524 2.42264 14.9044 3.45546C14.9282 3.55389 14.9489 3.65311 14.9708 3.75194C14.9696 5.94921 14.9696 8.14647 14.9696 10.3437ZM1.19303 5.17733C5.38522 5.17733 9.58717 5.17733 13.795 5.17733C13.795 4.74413 13.8169 4.31874 13.7895 3.89686C13.7551 3.37382 13.3626 2.94413 12.8415 2.87225C12.5278 2.82889 12.2036 2.86444 11.8696 2.86444C11.8696 3.04686 11.8735 3.23632 11.8688 3.42538C11.8622 3.70311 11.7036 3.91522 11.4583 3.98553C11.068 4.09803 10.7133 3.83749 10.702 3.42577C10.6965 3.23319 10.7012 3.03983 10.7012 2.85155C9.80202 2.85155 8.92662 2.85155 8.03991 2.85155C8.03991 2.96171 8.03991 3.06327 8.03991 3.16483C8.03991 3.25741 8.04303 3.35038 8.03834 3.44296C8.02154 3.77616 7.77545 4.01405 7.4524 4.0121C7.12858 4.01014 6.88365 3.77108 6.87233 3.43749C6.86569 3.24374 6.87115 3.04999 6.87115 2.85272C5.986 2.85272 5.11725 2.85272 4.23873 2.85272C4.23873 3.04725 4.24303 3.23202 4.23756 3.41678C4.23053 3.65936 4.13248 3.85194 3.90319 3.95624C3.50904 4.13553 3.08678 3.87108 3.07115 3.43436C3.06451 3.241 3.06998 3.04725 3.06998 2.84413C2.79928 2.84413 2.54694 2.83905 2.29459 2.8453C1.75787 2.85858 1.26256 3.25233 1.20397 3.78788C1.15319 4.24374 1.19303 4.70975 1.19303 5.17733Z" fill="#303030" fill-opacity="0.52"/>
<path d="M3.27443 7.56013C3.38615 7.56013 3.49825 7.55662 3.60997 7.56091C3.93654 7.57419 4.1713 7.81013 4.17911 8.12849C4.18732 8.45388 3.95919 8.70935 3.62716 8.72693C3.39435 8.73943 3.15997 8.73865 2.92716 8.72732C2.59708 8.71091 2.3631 8.45193 2.3713 8.13122C2.37951 7.80622 2.61818 7.57107 2.95333 7.56052C3.06036 7.5574 3.1674 7.56013 3.27443 7.56013Z" fill="#303030" fill-opacity="0.52"/>
<path d="M3.28449 9.78669C3.39152 9.78669 3.49855 9.78318 3.60558 9.78748C3.93292 9.79998 4.16886 10.0332 4.17863 10.3511C4.18878 10.6765 3.96222 10.9343 3.63097 10.9531C3.39347 10.9664 3.15402 10.9668 2.91652 10.9527C2.5923 10.9336 2.36535 10.6777 2.3712 10.3617C2.37706 10.0371 2.61535 9.7988 2.94933 9.78708C3.06066 9.78357 3.17277 9.78669 3.28449 9.78669Z" fill="#303030" fill-opacity="0.52"/>
<path d="M3.27361 13.1933C3.12361 13.184 2.97049 13.1902 2.82439 13.1617C2.53182 13.1043 2.34705 12.8433 2.37244 12.5531C2.39861 12.2551 2.61385 12.0324 2.91189 12.0176C3.15447 12.0055 3.39861 12.0047 3.6408 12.018C3.95564 12.0348 4.17908 12.2859 4.17869 12.5992C4.1783 12.9176 3.95017 13.1601 3.624 13.1816C3.50799 13.1894 3.3908 13.1828 3.274 13.1828C3.274 13.1863 3.274 13.1898 3.27361 13.1933Z" fill="#303030" fill-opacity="0.52"/>
<path d="M8.89994 12.0133C9.00697 12.0133 9.114 12.0105 9.22103 12.0137C9.53783 12.0234 9.78549 12.2699 9.79369 12.5812C9.80189 12.898 9.55892 13.1683 9.23978 13.1816C9.01166 13.1914 8.78236 13.1906 8.55424 13.182C8.21517 13.1691 7.97689 12.9144 7.98353 12.5855C7.99017 12.2613 8.22963 12.025 8.56439 12.014C8.67611 12.0101 8.78783 12.0133 8.89994 12.0133Z" fill="#303030" fill-opacity="0.52"/>
<path d="M6.08323 8.73981C5.93323 8.73082 5.78011 8.73785 5.63362 8.70973C5.33948 8.65309 5.15667 8.3984 5.17737 8.10426C5.19847 7.80895 5.41487 7.58082 5.71292 7.56481C5.9555 7.55192 6.19964 7.55231 6.44222 7.56442C6.75745 7.58004 6.98323 7.82926 6.9848 8.14176C6.98636 8.45895 6.75862 8.70504 6.43362 8.72848C6.31761 8.73668 6.20042 8.72965 6.08362 8.72965C6.08323 8.73317 6.08323 8.73629 6.08323 8.73981Z" fill="#303030" fill-opacity="0.52"/>
<path d="M8.89796 7.56054C9.00499 7.56054 9.11202 7.55703 9.21905 7.56133C9.5464 7.57422 9.78116 7.80742 9.79132 8.12656C9.80186 8.44843 9.5714 8.70898 9.24132 8.72734C9.00851 8.74023 8.77413 8.73906 8.54132 8.72812C8.21085 8.7125 7.97765 8.45664 7.98351 8.13437C7.98937 7.81015 8.22804 7.57226 8.5628 7.56133C8.67413 7.55703 8.78624 7.56015 8.89796 7.56054Z" fill="#303030" fill-opacity="0.52"/>
<path d="M11.6935 7.56052C11.8052 7.56052 11.9173 7.55701 12.0291 7.56131C12.3556 7.57459 12.59 7.80974 12.5994 8.12849C12.6084 8.45037 12.3771 8.70974 12.047 8.72732C11.8142 8.73982 11.5798 8.73904 11.347 8.72771C11.017 8.71131 10.7841 8.45427 10.7912 8.13201C10.7982 7.80779 11.0373 7.57185 11.3724 7.56092C11.4795 7.5574 11.5865 7.56013 11.6935 7.56052Z" fill="#303030" fill-opacity="0.52"/>
<path d="M6.07947 9.78712C6.19119 9.78751 6.3033 9.78361 6.41502 9.78791C6.74119 9.80158 6.97556 10.0371 6.98416 10.3563C6.99275 10.6785 6.7615 10.9367 6.43064 10.9543C6.19783 10.9664 5.96345 10.966 5.73064 10.9543C5.39978 10.9375 5.16853 10.6805 5.17595 10.3574C5.18377 10.0332 5.42244 9.79806 5.75838 9.78712C5.86541 9.784 5.97244 9.78673 6.07947 9.78712Z" fill="#303030" fill-opacity="0.52"/>
<path d="M8.89477 9.78712C9.00181 9.78712 9.10884 9.784 9.21587 9.7879C9.54946 9.80001 9.78774 10.0402 9.79165 10.3645C9.79556 10.682 9.56978 10.9348 9.24478 10.9535C9.00728 10.9672 8.76782 10.9672 8.53032 10.9535C8.20571 10.9352 7.97954 10.682 7.98345 10.3645C7.98735 10.0399 8.22564 9.80001 8.55923 9.7879C8.67095 9.78361 8.78267 9.78712 8.89477 9.78712Z" fill="#303030" fill-opacity="0.52"/>
<path d="M11.6941 9.78711C11.8059 9.78711 11.918 9.7832 12.0297 9.78789C12.3559 9.80156 12.5902 10.0375 12.5984 10.3566C12.6066 10.6793 12.3754 10.9371 12.0445 10.9543C11.8117 10.9664 11.5773 10.966 11.3445 10.9543C11.0141 10.9375 10.7824 10.6801 10.7902 10.357C10.798 10.0383 11.0324 9.80156 11.3586 9.78789C11.4703 9.7832 11.5824 9.78711 11.6941 9.78711Z" fill="#303030" fill-opacity="0.52"/>
<path d="M6.08893 12.0137C6.19596 12.0137 6.30299 12.0102 6.41002 12.0145C6.74322 12.027 6.9815 12.2676 6.98502 12.5918C6.98854 12.9094 6.76236 13.1617 6.43697 13.1801C6.19947 13.1934 5.96002 13.1937 5.72252 13.1797C5.39752 13.1609 5.17252 12.9078 5.17682 12.5898C5.18112 12.2652 5.41939 12.0262 5.75338 12.0145C5.8651 12.0102 5.97721 12.0133 6.08893 12.0137Z" fill="#303030" fill-opacity="0.52"/>
</g>
<defs>
<clipPath id="clip0_2188_420">
<rect width="15" height="15" fill="white" transform="translate(0 0.5)"/>
</clipPath>
</defs>
</svg>
