<svg width="15" height="16" viewBox="0 0 15 16" fill="none" xmlns="http://www.w3.org/2000/svg">
<g clip-path="url(#clip0_2188_678)">
<path d="M12.9074 0.499951C13.1301 0.56499 13.3653 0.603077 13.5733 0.699756C14.4801 1.12134 14.9723 1.8438 14.9784 2.84517C14.9937 5.29116 14.9837 7.73716 14.9831 10.1832C14.9831 10.5511 14.7353 10.8136 14.3951 10.8119C14.0564 10.8101 13.8142 10.547 13.8142 10.1764C13.8136 7.75005 13.8145 5.32339 13.8136 2.89702C13.8133 2.25981 13.4192 1.78521 12.809 1.68501C12.7325 1.67241 12.6537 1.67212 12.5761 1.67212C9.18965 1.67153 5.80293 1.67124 2.4165 1.67183C1.68291 1.67183 1.18311 2.16958 1.18281 2.90054C1.18223 6.29868 1.18223 9.69653 1.18281 13.0947C1.18281 13.8271 1.68174 14.3272 2.41269 14.3275C4.21064 14.3284 6.00889 14.3278 7.80684 14.3278C7.85459 14.3278 7.90205 14.3278 7.95801 14.3278C7.95801 12.9019 7.95801 11.4877 7.95801 10.0504C7.91025 10.0504 7.85928 10.0504 7.8083 10.0504C7.43301 10.0504 7.05801 10.0519 6.68271 10.0499C6.31357 10.0481 6.06895 9.80376 6.06602 9.4355C6.06426 9.23042 6.06279 9.02534 6.0666 8.82026C6.07275 8.48687 6.31943 8.23843 6.65225 8.23491C7.03223 8.23081 7.4125 8.23374 7.79248 8.23374C7.84492 8.23374 7.89766 8.23374 7.96621 8.23374C7.96621 8.16987 7.96621 8.11772 7.96621 8.06558C7.96621 7.47964 7.96504 6.8937 7.9665 6.30806C7.97002 4.7105 9.33291 3.45513 10.9226 3.58462C11.0975 3.59898 11.2721 3.6145 11.4464 3.63267C11.7382 3.66284 11.9597 3.8937 11.9696 4.18755C11.977 4.402 11.9772 4.61733 11.9696 4.83179C11.9588 5.14087 11.713 5.38228 11.4024 5.39019C11.159 5.39663 10.9152 5.38989 10.6715 5.39253C10.1626 5.39751 9.78262 5.7731 9.77998 6.28052C9.77646 6.92446 9.7791 7.56841 9.7791 8.23374C9.84707 8.23374 9.90801 8.23374 9.96895 8.23374C10.3686 8.23374 10.7682 8.23257 11.1678 8.23403C11.5873 8.23579 11.8428 8.53755 11.7836 8.95503C11.7569 9.14341 11.7376 9.33267 11.7121 9.52134C11.6688 9.84214 11.4399 10.0472 11.1159 10.0493C10.6776 10.0522 10.2394 10.0499 9.78994 10.0499C9.78994 11.4734 9.78994 12.8908 9.78994 14.3208C9.83447 14.3228 9.88135 14.3272 9.92822 14.3272C10.815 14.3275 11.7019 14.3284 12.5887 14.3272C13.2941 14.3263 13.7808 13.8567 13.8139 13.1477C13.8294 12.8128 14.0849 12.565 14.4089 12.57C14.7317 12.575 14.9796 12.8333 14.9831 13.1682C14.9951 14.2862 14.1285 15.3001 13.017 15.4698C12.9798 15.4753 12.9437 15.4891 12.9074 15.4991C9.30127 15.4991 5.69482 15.4991 2.08867 15.4991C2.06201 15.49 2.03594 15.4777 2.0084 15.4724C1.01641 15.2875 0.378028 14.7086 0.088575 13.7421C0.0569344 13.6364 0.0375977 13.5268 0.0126953 13.419C0.0126953 9.80581 0.0126953 6.19233 0.0126953 2.57915C0.0217773 2.5522 0.0337898 2.52583 0.0390632 2.49829C0.222755 1.50366 0.801659 0.864697 1.76611 0.574951C1.87187 0.543311 1.98115 0.523975 2.08867 0.498779C5.69482 0.499951 9.30127 0.499951 12.9074 0.499951Z" fill="#303030" fill-opacity="0.52"/>
</g>
<defs>
<clipPath id="clip0_2188_678">
<rect width="15" height="15" fill="white" transform="translate(0 0.5)"/>
</clipPath>
</defs>
</svg>
