<svg width="15" height="16" viewBox="0 0 15 16" fill="none" xmlns="http://www.w3.org/2000/svg">
<g clip-path="url(#clip0_2188_635)">
<path d="M10.1951 0.329501C10.3377 0.433772 10.4967 0.521663 10.621 0.64471C11.5826 1.59673 12.535 2.55793 13.4966 3.50954C13.684 3.69491 13.7659 3.89706 13.7651 4.16113C13.7587 6.22297 13.7619 8.2852 13.7615 10.347C13.7615 10.6906 13.5769 10.9403 13.2833 10.9994C12.9209 11.0725 12.5853 10.8137 12.5646 10.4445C12.5614 10.3898 12.5634 10.3347 12.5634 10.2799C12.5634 8.46258 12.5634 6.64524 12.5634 4.8279C12.5634 4.76838 12.5634 4.70885 12.5634 4.62735C12.3221 4.62735 12.0879 4.64333 11.8566 4.62336C11.5654 4.59819 11.265 4.58181 10.9897 4.49432C10.108 4.21387 9.50676 3.39688 9.4716 2.47164C9.46002 2.16362 9.4696 1.8548 9.4696 1.52841C9.39849 1.52841 9.34536 1.52841 9.29262 1.52841C7.3854 1.52841 5.47777 1.52801 3.57055 1.52841C2.88061 1.52881 2.43476 1.97266 2.43476 2.6594C2.43436 6.21897 2.43436 9.77894 2.43476 13.3385C2.43476 14.0257 2.881 14.4715 3.56895 14.4715C6.19048 14.4719 8.81162 14.4719 11.4332 14.4715C12.0967 14.4715 12.527 14.06 12.5646 13.394C12.5837 13.0529 12.8474 12.8068 13.1838 12.816C13.5106 12.8252 13.7575 13.0828 13.7619 13.4196C13.7758 14.4955 12.9389 15.4763 11.8678 15.6404C11.8295 15.6464 11.7923 15.66 11.7544 15.67C8.91749 15.67 6.08102 15.67 3.24415 15.67C3.21619 15.6608 3.18902 15.648 3.16026 15.6436C2.05403 15.4739 1.23825 14.5386 1.23745 13.4208C1.23465 9.80651 1.23465 6.19221 1.23745 2.5779C1.23825 1.55118 1.93378 0.661488 2.92575 0.401811C3.03122 0.374246 3.13828 0.353072 3.24455 0.329102C5.56047 0.329501 7.87798 0.329501 10.1951 0.329501ZM10.6777 2.42729C10.6645 2.94585 11.2346 3.50315 11.6529 3.40048C11.3333 3.08128 11.0069 2.75568 10.6777 2.42729Z" fill="#303030" fill-opacity="0.52"/>
<path d="M7.48339 9.92271C6.64044 9.92271 5.79709 9.92591 4.95414 9.92151C4.49911 9.91912 4.21306 9.47447 4.40363 9.07377C4.51868 8.83167 4.72283 8.7266 4.98371 8.725C5.3129 8.72301 5.64209 8.7246 5.97168 8.7246C7.29882 8.7246 8.62597 8.7238 9.95272 8.7266C10.0558 8.727 10.1641 8.73699 10.2607 8.77015C10.5368 8.86363 10.693 9.14888 10.6415 9.43852C10.5927 9.71337 10.3506 9.92071 10.0578 9.92191C9.19966 9.92471 8.34153 9.92271 7.48339 9.92271Z" fill="#303030" fill-opacity="0.52"/>
<path d="M7.50779 6.07713C8.35594 6.07713 9.20408 6.07353 10.0522 6.07872C10.4969 6.08152 10.7805 6.52697 10.5951 6.92168C10.4753 7.17656 10.26 7.27603 9.98751 7.27563C9.27919 7.27484 8.57047 7.27523 7.86215 7.27523C6.90934 7.27523 5.95652 7.27644 5.00331 7.27444C4.61939 7.27364 4.35252 7.03074 4.34772 6.68517C4.34293 6.33481 4.59861 6.07832 4.96336 6.07713C5.77155 6.07473 6.57975 6.07633 7.38794 6.07633C7.42789 6.07673 7.46784 6.07673 7.50779 6.07713Z" fill="#303030" fill-opacity="0.52"/>
<path d="M8.79471 11.3834C9.2038 11.3834 9.61249 11.3822 10.0216 11.3838C10.3891 11.3854 10.6484 11.6343 10.6484 11.9814C10.6484 12.3254 10.3867 12.5795 10.0196 12.5807C9.19182 12.5835 8.36364 12.5831 7.53587 12.5807C7.16434 12.5795 6.89507 12.3178 6.89947 11.9714C6.90386 11.6295 7.16873 11.3842 7.53827 11.3834C7.95695 11.3826 8.37563 11.3834 8.79471 11.3834Z" fill="#303030" fill-opacity="0.52"/>
<path d="M6.22673 4.61662C5.81285 4.61662 5.39896 4.61782 4.98508 4.61622C4.61434 4.61502 4.35226 4.37173 4.34867 4.02776C4.34507 3.67539 4.60675 3.41971 4.98228 3.41891C5.81005 3.41652 6.63822 3.41652 7.46599 3.41891C7.83074 3.42011 8.09681 3.67699 8.09761 4.01777C8.0984 4.36094 7.83353 4.61462 7.46879 4.61622C7.0545 4.61782 6.64062 4.61662 6.22673 4.61662Z" fill="#303030" fill-opacity="0.52"/>
</g>
<defs>
<clipPath id="clip0_2188_635">
<rect width="15" height="15" fill="white" transform="translate(0 0.5)"/>
</clipPath>
</defs>
</svg>
