<svg width="16" height="15" viewBox="0 0 16 15" fill="none" xmlns="http://www.w3.org/2000/svg">
<g clip-path="url(#clip0_2181_108)">
<path d="M15.4856 9.84375C15.4273 9.94366 15.3854 10.0594 15.3072 10.1399C15.1405 10.3116 14.9281 10.3579 14.7019 10.2747C14.4766 10.1918 14.3504 10.0207 14.3205 9.78194C14.3126 9.71924 14.3161 9.65508 14.3161 9.5918C14.3158 7.59024 14.3164 5.58868 14.3158 3.58711C14.3158 3.08526 14.1119 2.69649 13.656 2.47119C13.516 2.40205 13.3514 2.36368 13.1946 2.35196C12.9333 2.33291 12.6699 2.34668 12.3849 2.34668C12.3849 2.54825 12.3919 2.74659 12.3834 2.94434C12.3638 3.40313 11.8763 3.66475 11.4928 3.42422C11.3091 3.30909 11.2206 3.13623 11.2174 2.9209C11.2144 2.73575 11.2168 2.55059 11.2168 2.3543C10.3314 2.3543 9.45282 2.3543 8.55546 2.3543C8.55546 2.52657 8.55634 2.70059 8.55516 2.87432C8.55253 3.24873 8.3161 3.51006 7.97743 3.51416C7.6329 3.51827 7.38856 3.25401 7.38593 2.87344C7.38475 2.70323 7.38563 2.53301 7.38563 2.35313C6.5079 2.35313 5.63895 2.35313 4.7539 2.35313C4.7539 2.5295 4.75507 2.70381 4.7536 2.87813C4.75067 3.25078 4.51102 3.51241 4.17235 3.51416C3.83309 3.51621 3.58817 3.25459 3.58466 2.88457C3.5829 2.70996 3.58436 2.53506 3.58436 2.32705C3.23866 2.34522 2.89823 2.325 2.57421 2.38887C2.07587 2.48702 1.74012 2.89395 1.69706 3.4128C1.67069 3.73184 1.69208 4.05469 1.69208 4.39424C1.75507 4.39424 1.81659 4.39424 1.87811 4.39424C5.40575 4.39424 8.93339 4.39483 12.4607 4.39278C12.6591 4.39278 12.8416 4.425 12.9808 4.57588C13.1433 4.75196 13.1911 4.96084 13.105 5.18643C13.0194 5.41114 12.8469 5.53536 12.6084 5.56202C12.5457 5.56905 12.4818 5.56582 12.4185 5.56582C8.91053 5.56582 5.40224 5.56582 1.89423 5.56582C1.83124 5.56582 1.76825 5.56582 1.68329 5.56582C1.68329 5.62354 1.68329 5.67481 1.68329 5.72608C1.68329 8.00596 1.683 10.2858 1.68358 12.5657C1.68388 13.3342 2.17753 13.8272 2.94628 13.8275C6.31805 13.8281 9.68954 13.8281 13.0613 13.8275C13.7864 13.8275 14.2619 13.3822 14.3146 12.6589C14.3381 12.3369 14.5341 12.114 14.8279 12.0753C15.1089 12.0384 15.3503 12.2016 15.461 12.5024C15.466 12.5156 15.4766 12.5268 15.4845 12.5388C15.4845 12.6656 15.4845 12.7928 15.4845 12.9196C15.4754 12.9413 15.4619 12.9621 15.4584 12.9847C15.326 13.8085 14.885 14.4094 14.1371 14.7689C13.9098 14.8781 13.6522 14.9244 13.4085 14.9997C9.80233 14.9997 6.19589 14.9997 2.58974 14.9997C2.42597 14.9575 2.25839 14.9271 2.09931 14.8717C1.13134 14.5333 0.515516 13.6638 0.514637 12.6243C0.512 9.59707 0.513757 6.57012 0.513757 3.54287C0.513757 3.48926 0.514637 3.43535 0.518152 3.38174C0.542469 3.01612 0.635046 2.66895 0.825183 2.35459C1.29159 1.58321 1.97772 1.18887 2.87802 1.17217C3.11005 1.16778 3.34208 1.17159 3.58378 1.17159C3.58378 1.0125 3.59169 0.871 3.58231 0.730961C3.558 0.368265 3.70214 0.118948 4.05165 -0.000289917C4.12958 -0.000289917 4.20751 -0.000289917 4.28544 -0.000289917C4.63407 0.118948 4.77909 0.367093 4.75477 0.729495C4.74511 0.87305 4.75331 1.01807 4.75331 1.16162C5.64012 1.16162 6.50819 1.16162 7.38475 1.16162C7.38475 1.01104 7.39266 0.869827 7.38329 0.729495C7.35897 0.367093 7.50428 0.118948 7.85262 -0.000289917C7.93055 -0.000289917 8.00848 -0.000289917 8.08641 -0.000289917C8.43505 0.118948 8.58007 0.367093 8.55575 0.729495C8.54608 0.87305 8.55428 1.01807 8.55428 1.16162C9.45106 1.16162 10.3288 1.16162 11.215 1.16162C11.215 1.01104 11.2229 0.869827 11.2136 0.729495C11.1892 0.367093 11.3346 0.118948 11.6829 -0.000289917C11.7608 -0.000289917 11.8388 -0.000289917 11.9167 -0.000289917C12.2653 0.118948 12.4103 0.367386 12.386 0.729789C12.3764 0.873343 12.3846 1.01836 12.3846 1.17364C12.6755 1.17364 12.9482 1.16075 13.2192 1.17598C14.1421 1.22754 14.8247 1.66905 15.2404 2.49375C15.3585 2.72784 15.4048 2.99795 15.4839 3.25166C15.4856 5.44922 15.4856 7.64649 15.4856 9.84375Z" fill="#303030" fill-opacity="0.52"/>
<path d="M7.47156 9.67705C7.68631 9.91875 7.85653 10.1719 7.91248 10.4854C8.08065 11.4296 7.43699 12.3832 6.48719 12.5988C5.67508 12.7834 4.88787 12.4664 4.42967 11.7703C4.24217 11.4855 4.29754 11.1419 4.56151 10.9523C4.82781 10.761 5.16707 10.8129 5.3742 11.0895C5.58279 11.3681 5.83299 11.5342 6.19744 11.4609C6.50301 11.3994 6.74647 11.1475 6.76082 10.8355C6.76551 10.7347 6.72537 10.6017 6.65623 10.5346C6.53729 10.4191 6.38817 10.3251 6.23641 10.2563C5.995 10.147 5.83738 9.94805 5.83738 9.69697C5.83738 9.45176 5.98533 9.24053 6.22469 9.14678C6.43182 9.06563 6.59764 8.92793 6.70633 8.73985C6.75467 8.65606 6.77078 8.53154 6.75233 8.43486C6.69578 8.14131 6.51151 7.94502 6.21942 7.87735C5.92645 7.80938 5.65838 7.86856 5.44744 8.10205C5.39207 8.16358 5.34491 8.23359 5.28338 8.28838C5.066 8.48174 4.74168 8.48145 4.52049 8.29336C4.29695 8.10323 4.25096 7.78096 4.41736 7.5249C4.66932 7.13643 5.02381 6.88916 5.46678 6.75762C6.54197 6.43858 7.63446 7.06348 7.89373 8.15362C8.01561 8.66602 7.90926 9.12979 7.58026 9.54141C7.54656 9.5836 7.51317 9.6252 7.47156 9.67705Z" fill="#303030" fill-opacity="0.52"/>
<path d="M10.3393 8.4668C10.2432 8.5377 10.172 8.59424 10.097 8.64522C9.82191 8.83154 9.48031 8.78057 9.28988 8.52627C9.10091 8.27402 9.13255 7.93008 9.38451 7.72588C9.77035 7.41299 10.165 7.11035 10.5605 6.80977C10.7544 6.6624 10.973 6.63457 11.1918 6.75C11.4101 6.86484 11.5082 7.05967 11.5085 7.30342C11.5091 8.88457 11.5103 10.4654 11.5079 12.0466C11.5074 12.3967 11.2583 12.6524 10.9299 12.6557C10.5959 12.6589 10.3413 12.4005 10.3405 12.0437C10.3378 10.9116 10.3393 9.7793 10.3393 8.64726C10.3393 8.59541 10.3393 8.54414 10.3393 8.4668Z" fill="#303030" fill-opacity="0.52"/>
</g>
<defs>
<clipPath id="clip0_2181_108">
<rect width="15" height="15" fill="white" transform="translate(0.5)"/>
</clipPath>
</defs>
</svg>
