<svg width="15" height="16" viewBox="0 0 15 16" fill="none" xmlns="http://www.w3.org/2000/svg">
<g clip-path="url(#clip0_2188_673)">
<path d="M14.9737 9.61128C14.9661 9.70796 14.9587 9.80493 14.9502 9.90161C14.9245 10.1928 14.6898 10.4205 14.4033 10.4325C14.1015 10.4451 13.8472 10.2447 13.7992 9.95083C13.7874 9.87905 13.7871 9.80522 13.7869 9.73228C13.7816 8.31665 13.7845 6.90073 13.769 5.4854C13.7625 4.88921 13.6995 4.29536 13.4877 3.73081C13.0541 2.57563 12.1969 1.91089 10.9966 1.80366C9.77142 1.69409 8.5351 1.68706 7.30346 1.67974C6.27631 1.67358 5.24828 1.72134 4.22143 1.7644C2.71498 1.82769 1.55892 2.84985 1.32631 4.35483C1.23432 4.94985 1.20268 5.55894 1.19682 6.16216C1.18275 7.6314 1.19125 9.10093 1.20824 10.5702C1.21556 11.191 1.28851 11.8097 1.53256 12.3895C1.98871 13.4735 2.8307 14.0969 3.97562 14.1968C5.19144 14.3029 6.41781 14.3131 7.63978 14.3205C8.67191 14.3266 9.7058 14.2944 10.7362 14.2326C11.9494 14.1596 12.8778 13.6097 13.4092 12.4736C13.5627 12.1455 13.8897 12.0168 14.1958 12.1563C14.5055 12.2975 14.6215 12.6397 14.466 12.9731C13.8296 14.3372 12.7445 15.1217 11.279 15.3432C10.5698 15.4504 9.84203 15.4367 9.12279 15.4786C9.04574 15.483 8.96869 15.4929 8.89193 15.5002C7.95619 15.5002 7.02045 15.5002 6.085 15.5002C6.00795 15.4929 5.93119 15.4838 5.85414 15.4786C5.07719 15.4267 4.28852 15.4428 3.52592 15.3092C2.18764 15.0749 1.17836 14.3292 0.565467 13.0926C0.175818 12.3066 0.0486703 11.4555 0.0401742 10.5924C0.022889 8.8645 0.0223041 7.13569 0.0431049 5.40776C0.0489643 4.91851 0.110193 4.42104 0.21742 3.94351C0.60824 2.20005 1.68871 1.1061 3.42601 0.708838C3.93812 0.59165 4.47865 0.593994 5.00687 0.552978C5.36547 0.525146 5.72553 0.516943 6.085 0.500244C7.02074 0.500244 7.95648 0.500244 8.89193 0.500244C8.96869 0.507568 9.04545 0.517236 9.1225 0.521924C9.83617 0.563232 10.5592 0.544189 11.2618 0.65581C12.9914 0.930615 14.1545 1.91411 14.6789 3.60864C14.8808 4.26079 14.9297 4.93726 14.9461 5.61636C14.9523 5.87417 14.9646 6.13169 14.974 6.38921C14.9737 7.46294 14.9737 8.53696 14.9737 9.61128Z" fill="#303030" fill-opacity="0.52"/>
<path d="M7.45879 11.6618C5.44551 11.6624 3.804 10.0177 3.80371 8.00029C3.80371 5.98203 5.44346 4.33848 7.45791 4.33789C9.47178 4.3373 11.113 5.98115 11.1136 7.99912C11.1139 10.0165 9.47266 11.6615 7.45879 11.6618ZM7.4582 10.4899C8.82549 10.4902 9.94229 9.37285 9.94375 8.00322C9.94522 6.63213 8.83252 5.5124 7.46553 5.50977C6.09033 5.50684 4.97207 6.62568 4.97324 8.00322C4.97471 9.37344 6.09033 10.4899 7.4582 10.4899Z" fill="#303030" fill-opacity="0.52"/>
<path d="M11.5181 4.9232C11.0327 4.92115 10.6413 4.52125 10.6465 4.03258C10.6515 3.5524 11.0464 3.16422 11.5278 3.16627C12.0132 3.16832 12.4055 3.56881 12.4 4.05689C12.3944 4.53619 11.9983 4.92555 11.5181 4.9232Z" fill="#303030" fill-opacity="0.52"/>
</g>
<defs>
<clipPath id="clip0_2188_673">
<rect width="15" height="15" fill="white" transform="translate(0 0.5)"/>
</clipPath>
</defs>
</svg>
