<svg width="15" height="16" viewBox="0 0 15 16" fill="none" xmlns="http://www.w3.org/2000/svg">
<g clip-path="url(#clip0_2188_402)">
<path d="M7.96885 15.5C7.65684 15.5 7.34512 15.5 7.03311 15.5C6.9959 15.4915 6.95898 15.4783 6.92119 15.4754C5.92832 15.4013 4.98233 15.1493 4.10371 14.6806C1.92666 13.519 0.591016 11.7266 0.12959 9.29259C0.0780278 9.02071 0.053125 8.74357 0.015625 8.46905C0.015625 8.15646 0.015625 7.84415 0.015625 7.53155C0.0241211 7.48907 0.0340834 7.44689 0.0408217 7.40441C0.100001 7.02413 0.13545 6.63859 0.22129 6.26446C0.883985 3.37257 3.29453 1.10294 6.21221 0.613977C6.48467 0.568274 6.75947 0.537805 7.03311 0.500305C7.34512 0.500305 7.65684 0.500305 7.96885 0.500305C8.01133 0.508801 8.05322 0.521984 8.09629 0.525207C8.62773 0.563586 9.14834 0.661145 9.65781 0.816125C13.6979 2.04249 15.9162 6.30958 14.6081 10.3379C14.3989 10.9818 14.1016 11.5833 13.728 12.147C13.5883 12.3579 13.3885 12.452 13.1386 12.4162C12.8975 12.3817 12.7158 12.2018 12.6605 11.9607C12.6183 11.7761 12.676 11.6161 12.7765 11.4632C13.1239 10.9341 13.397 10.3684 13.5607 9.75636C13.6621 9.37814 13.7304 8.99083 13.8156 8.59679C13.1049 8.59679 12.4357 8.59679 11.759 8.59679C11.6594 10.3821 11.2923 12.0849 10.3589 13.6326C10.4931 13.5717 10.6161 13.5037 10.738 13.4343C11.0576 13.2524 11.406 13.3317 11.5759 13.6259C11.7435 13.9156 11.6447 14.2578 11.3354 14.4421C10.5449 14.9132 9.69766 15.2325 8.79004 15.3855C8.51816 15.4309 8.24307 15.4619 7.96885 15.5ZM6.87578 7.40587C6.87578 5.53526 6.87578 3.67579 6.87578 1.78907C6.74365 1.86642 6.62647 1.92531 6.51982 1.99913C5.99307 2.36447 5.63447 2.87159 5.34092 3.42941C4.86543 4.33263 4.60147 5.30265 4.46231 6.30841C4.4125 6.66905 4.38584 7.03292 4.34746 7.40587C5.20498 7.40587 6.03613 7.40587 6.87578 7.40587ZM6.84473 14.2174C6.85498 14.203 6.86494 14.1887 6.8752 14.1746C6.8752 12.3134 6.8752 10.4522 6.8752 8.59562C6.03203 8.59562 5.20088 8.59562 4.37002 8.59562C4.36738 8.61935 4.36357 8.634 4.36416 8.64806C4.41953 9.7962 4.62608 10.913 5.06524 11.9794C5.34209 12.6524 5.69072 13.2825 6.23975 13.775C6.4249 13.9408 6.64199 14.0709 6.84473 14.2174ZM8.10186 1.78263C8.09043 1.79581 8.07871 1.8087 8.06729 1.82189C8.06729 3.68341 8.06729 5.54493 8.06729 7.40558C8.90899 7.40558 9.73984 7.40558 10.5742 7.40558C10.5766 7.37863 10.5804 7.35958 10.5795 7.34113C10.5224 6.19825 10.3167 5.08614 9.88018 4.02413C9.60566 3.35587 9.26025 2.72892 8.71768 2.23761C8.5293 2.0671 8.30781 1.93321 8.10186 1.78263ZM8.06201 14.2215C8.23252 14.114 8.38223 14.0337 8.5167 13.9326C8.94561 13.6109 9.2582 13.1888 9.51777 12.7259C10.0152 11.8394 10.2985 10.8802 10.4515 9.88087C10.5162 9.45841 10.5517 9.03126 10.6015 8.59474C9.73604 8.59474 8.90166 8.59474 8.06172 8.59474C8.06201 10.4615 8.06201 12.3195 8.06201 14.2215ZM13.7781 7.40675C13.6355 5.29737 12.2017 3.24015 10.3448 2.36915C11.2979 3.92335 11.6605 5.63077 11.7607 7.40675C12.4466 7.40675 13.1122 7.40675 13.7781 7.40675ZM4.55254 2.41984C3.5169 2.96388 2.696 3.73849 2.09072 4.74103C1.5959 5.56046 1.30439 6.44728 1.21475 7.40851C1.87861 7.40851 2.5249 7.40851 3.1832 7.40851C3.28164 5.6463 3.63936 3.9588 4.55254 2.41984ZM4.56719 13.5802C3.63877 12.0424 3.28135 10.3511 3.18291 8.59386C2.51582 8.59386 1.86924 8.59386 1.22266 8.59386C1.21797 10.3895 3.01328 13.069 4.56719 13.5802Z" fill="#303030" fill-opacity="0.52"/>
</g>
<defs>
<clipPath id="clip0_2188_402">
<rect width="15" height="15" fill="white" transform="translate(0 0.5)"/>
</clipPath>
</defs>
</svg>
