<svg width="20" height="20" viewBox="0 0 20 20" fill="none" xmlns="http://www.w3.org/2000/svg">
<g clip-path="url(#clip0_2202_1887)">
<path d="M0.0197754 9.84375C0.174984 9.50573 0.44113 9.39896 0.804672 9.40834C1.53175 9.42761 2.25936 9.41302 2.98644 9.41406C3.37238 9.41459 3.64686 9.66615 3.63957 10.0094C3.63228 10.3474 3.36509 10.5849 2.98644 10.5854C2.25936 10.5865 1.53123 10.5724 0.804672 10.5911C0.44113 10.6005 0.175505 10.4932 0.0197754 10.1557C0.0197754 10.0521 0.0197754 9.94792 0.0197754 9.84375Z" fill="#303030" fill-opacity="0.52"/>
<path d="M9.84427 20C9.50729 19.8443 9.4 19.5776 9.40937 19.2135C9.42812 18.4854 9.41406 17.7562 9.4151 17.0271C9.41562 16.6401 9.66718 16.3656 10.0094 16.3724C10.3464 16.3797 10.5839 16.6474 10.5844 17.0265C10.5854 17.7552 10.5719 18.4844 10.5901 19.213C10.5995 19.5771 10.4922 19.8432 10.1552 19.9995C10.0526 20 9.94844 20 9.84427 20Z" fill="#303030" fill-opacity="0.52"/>
<path d="M10.1562 0C10.4948 0.155208 10.6 0.422917 10.5906 0.786459C10.5724 1.51458 10.5859 2.24375 10.5849 2.97292C10.5844 3.35989 10.3328 3.63437 9.99062 3.6276C9.65364 3.62083 9.41615 3.35208 9.41562 2.97292C9.41458 2.24427 9.42864 1.5151 9.40937 0.786459C9.4 0.421875 9.50729 0.155729 9.84427 0C9.94844 0 10.0526 0 10.1562 0Z" fill="#303030" fill-opacity="0.52"/>
<path d="M10.0073 15.1984C7.13591 15.2021 4.81299 12.8787 4.81195 10.0021C4.81091 7.12449 7.13122 4.80053 10.0031 4.80209C12.8682 4.80366 15.1817 7.11772 15.1885 9.98803C15.1948 12.8656 12.8786 15.1948 10.0073 15.1984Z" fill="#303030" fill-opacity="0.52"/>
<path d="M16.5489 2.75833C16.8906 2.76927 17.0796 2.87864 17.176 3.11302C17.2781 3.36041 17.2265 3.58646 17.0395 3.77604C16.6838 4.13698 16.3244 4.49427 15.9661 4.85312C15.764 5.05573 15.564 5.25989 15.3593 5.45937C15.0911 5.72187 14.7286 5.73229 14.4921 5.48906C14.2599 5.25 14.2708 4.89375 14.527 4.63489C15.0802 4.07604 15.6322 3.51614 16.1963 2.96875C16.3104 2.85885 16.4744 2.80156 16.5489 2.75833Z" fill="#303030" fill-opacity="0.52"/>
<path d="M17.2276 16.5646C17.2172 16.8995 17.1088 17.0802 16.889 17.1854C16.6692 17.2912 16.4119 17.2479 16.2239 17.063C15.8208 16.6667 15.4239 16.2641 15.0244 15.8641C14.8547 15.6938 14.6823 15.5261 14.5156 15.3531C14.2718 15.0995 14.2635 14.7479 14.4901 14.5125C14.7213 14.2724 15.0869 14.2719 15.3427 14.525C15.9109 15.087 16.4781 15.6505 17.0333 16.225C17.139 16.3333 17.1896 16.4958 17.2276 16.5646Z" fill="#303030" fill-opacity="0.52"/>
<path d="M2.73694 3.36147C2.77756 3.10157 2.9135 2.89012 3.13173 2.80678C3.38069 2.71199 3.60413 2.76251 3.79319 2.95053C4.2484 3.4047 4.70256 3.86095 5.15673 4.31616C5.27131 4.43126 5.38954 4.54272 5.49996 4.66251C5.72965 4.91199 5.73121 5.25991 5.50829 5.48959C5.28069 5.72397 4.91715 5.73074 4.66975 5.48647C4.09163 4.91616 3.51663 4.3422 2.95204 3.75835C2.851 3.65418 2.80725 3.49532 2.73694 3.36147Z" fill="#303030" fill-opacity="0.52"/>
<path d="M3.438 17.2432C3.10519 17.226 2.92706 17.1156 2.8255 16.8927C2.72341 16.6698 2.76977 16.4193 2.95675 16.2287C3.33019 15.8484 3.70831 15.4734 4.08487 15.0964C4.27289 14.9078 4.45935 14.7172 4.64998 14.5313C4.90935 14.2786 5.26716 14.2698 5.50258 14.5052C5.738 14.7406 5.73279 15.1016 5.47758 15.3599C4.92081 15.924 4.36352 16.4885 3.79425 17.0401C3.68175 17.1495 3.51352 17.2016 3.438 17.2432Z" fill="#303030" fill-opacity="0.52"/>
<path d="M18.1672 9.41406C18.563 9.41406 18.9588 9.41197 19.3547 9.41458C19.7177 9.41666 19.9776 9.66041 19.9802 9.99531C19.9828 10.3302 19.7224 10.5838 19.3635 10.5849C18.5719 10.5875 17.7802 10.587 16.9885 10.5849C16.6302 10.5838 16.3641 10.3344 16.3609 10.0036C16.3578 9.66718 16.6286 9.41562 16.9989 9.41406C17.3885 9.41302 17.7781 9.41406 18.1672 9.41406Z" fill="#303030" fill-opacity="0.52"/>
</g>
<defs>
<clipPath id="clip0_2202_1887">
<rect width="20" height="20" fill="white"/>
</clipPath>
</defs>
</svg>
