<?xml version="1.0" encoding="utf-8"?>
<!-- Generator: Adobe Illustrator 25.1.0, SVG Export Plug-In . SVG Version: 6.00 Build 0)  -->
<svg version="1.1" id="Layer_1" xmlns="http://www.w3.org/2000/svg" xmlns:xlink="http://www.w3.org/1999/xlink" x="0px" y="0px"
	 viewBox="0 0 1920 1080" style="enable-background:new 0 0 1920 1080;" xml:space="preserve">
<g>
	<path d="M705.03,520.09c1.3-9.67,2.01-19.47,3.99-29C730.63,387.38,791.65,318.8,892.55,286c7.54-2.45,14.51,0.13,18.3,6.18
		c3.82,6.09,3.12,12.94-2.41,19.2c-22.17,25.09-37.32,53.8-45.23,86.37c-23.07,94.94,28.23,195.09,119.47,230.02
		c73.85,28.27,141.95,16.05,203.27-33.86c1.42-1.15,2.75-2.41,4.19-3.53c5.59-4.34,12.44-4.67,18.07-0.93
		c5.58,3.71,8.05,10.19,6.14,17.01c-7.86,28.05-20.11,54.07-37.08,77.73c-39.7,55.36-92.82,90.73-159.46,105
		c-14.48,3.1-29.54,3.88-44.39,4.74c-28.37,1.63-56.48-0.83-83.53-9.97c-99.34-33.54-160.05-101.52-180.95-204.52
		c-1.9-9.37-2.63-18.97-3.9-28.46C705.03,540.68,705.03,530.39,705.03,520.09z"/>
	<path d="M1024.16,549.12c-4.9-0.12-9.49-3.35-12.41-9.22c-5.17-10.39-10.21-20.84-15.69-31.06c-1.36-2.55-3.81-4.98-6.36-6.34
		c-9.93-5.31-20.05-10.27-30.2-15.16c-6.08-2.93-9.83-7.43-9.93-14.24c-0.1-7.05,3.73-11.7,9.96-14.72
		c10.28-4.99,20.55-10.02,30.66-15.35c2.29-1.21,4.47-3.41,5.68-5.7c5.35-10.1,10.42-20.35,15.4-30.64
		c2.99-6.16,7.66-9.36,14.52-9.37c6.85-0.01,11.59,3.13,14.59,9.28c5.09,10.42,10.21,20.82,15.58,31.1c1.05,2.02,3.03,3.94,5.05,5
		c10.27,5.39,20.65,10.57,31.08,15.63c6.25,3.03,10.1,7.69,10.05,14.69c-0.05,6.77-3.81,11.34-9.87,14.3
		c-10.42,5.09-20.8,10.25-31.05,15.66c-2.15,1.13-4.23,3.18-5.35,5.33c-5.55,10.55-10.7,21.32-16.13,31.94
		C1036.65,546.3,1032.05,549.1,1024.16,549.12z"/>
	<path d="M1163.23,367.49c0,5.23,0.07,9.85-0.01,14.46c-0.17,9.18-6.45,15.75-15.05,15.85c-8.64,0.1-15.19-6.29-15.54-15.39
		c-0.18-4.77-0.03-9.55-0.03-14.92c-4.91,0-9.34,0.07-13.77-0.01c-9.9-0.2-16.6-6.46-16.59-15.41c0.02-9,6.75-15.17,16.65-15.23
		c4.3-0.03,8.6,0,13.69,0c0-4.32-0.01-8.39,0-12.45c0.04-10.99,6.21-18.2,15.48-18.1c9.14,0.1,15.14,7.16,15.17,17.86
		c0.01,3.97,0,7.95,0,12.69c4.77,0,9.34-0.03,13.91,0.01c9.53,0.07,16.33,6.2,16.61,14.89c0.27,8.78-6.62,15.48-16.35,15.74
		C1172.93,367.59,1168.46,367.49,1163.23,367.49z"/>
</g>
</svg>
