<svg width="18" height="18" viewBox="0 0 18 18" fill="none" xmlns="http://www.w3.org/2000/svg">
<g clip-path="url(#clip0_2202_1879)">
<path d="M8.7654 17.525C8.44149 17.4493 8.12444 17.3576 7.85099 17.156C7.31107 16.7579 7.03815 16.2188 7.00324 15.5289C6.94286 15.5289 6.8849 15.5289 6.82694 15.5289C5.85665 15.5286 4.88619 15.5398 3.91611 15.525C2.69994 15.5064 1.85269 14.4564 1.96507 13.3612C2.03107 12.7181 2.2269 12.1029 2.51019 11.5227C2.75536 11.0206 3.02257 10.5286 3.29653 10.0414C3.64132 9.42817 3.82144 8.78017 3.80774 8.07305C3.79603 7.46971 3.7699 6.86238 3.90632 6.26755C4.34882 4.33834 5.50703 3.03559 7.36361 2.35896C7.6269 2.26301 7.90882 2.21463 8.18515 2.15963C8.29286 2.13821 8.33474 2.10521 8.33153 1.99159C8.3239 1.72013 8.32582 1.44826 8.3302 1.17663C8.33653 0.785964 8.60894 0.501047 8.97732 0.492881C9.34844 0.484631 9.64478 0.770006 9.65703 1.16417C9.66686 1.47938 9.65903 1.79513 9.65903 2.12738C9.79707 2.15076 9.92803 2.16609 10.0557 2.19559C11.6882 2.57301 12.8883 3.50838 13.6497 5.00005C14.0326 5.75026 14.1767 6.55655 14.1862 7.39346C14.1916 7.87496 14.1652 8.36496 14.2465 8.83496C14.3139 9.22417 14.5088 9.59363 14.6652 9.96421C14.7459 10.1554 14.8005 10.3408 14.7344 10.5417C14.6483 10.803 14.4604 10.958 14.1907 10.9938C13.9123 11.0306 13.6827 10.9223 13.5417 10.6807C13.2127 10.1166 12.9533 9.52013 12.8975 8.86346C12.8554 8.36763 12.8621 7.86738 12.8543 7.36901C12.8311 5.89117 12.209 4.74642 10.9524 3.96067C9.70432 3.18026 7.94807 3.25596 6.7647 4.13646C5.68728 4.93817 5.14315 6.01067 5.13307 7.35734C5.12919 7.87767 5.12028 8.39951 5.07678 8.91755C5.02644 9.51676 4.78886 10.0618 4.51032 10.5894C4.21065 11.157 3.89278 11.7168 3.62882 12.3008C3.47336 12.6448 3.38503 13.0244 3.30674 13.3964C3.21361 13.839 3.51078 14.1798 3.96457 14.1977C3.99224 14.1988 4.02003 14.1982 4.04774 14.1982C7.34674 14.1982 10.6457 14.198 13.9447 14.1988C14.1318 14.1988 14.3103 14.1752 14.4602 14.0513C14.6389 13.9037 14.7221 13.7146 14.708 13.4815C14.7017 13.3771 14.6886 13.2692 14.7068 13.1679C14.7661 12.8388 15.0353 12.6235 15.3656 12.6259C15.6862 12.6282 15.9569 12.8617 16.0142 13.1851C16.2255 14.3798 15.3245 15.4989 14.1079 15.5233C13.1435 15.5427 12.1784 15.5284 11.2137 15.529C11.1482 15.529 11.0827 15.529 11.047 15.529C10.9695 15.8138 10.9299 16.0923 10.8197 16.3392C10.5339 16.9793 10.0308 17.3646 9.33757 17.4947C9.31215 17.4994 9.28874 17.5147 9.2644 17.5251C9.09807 17.525 8.93174 17.525 8.7654 17.525ZM8.35211 15.5371C8.35595 15.9064 8.64107 16.1919 9.00215 16.1931C9.36644 16.1944 9.65711 15.9071 9.65774 15.5371C9.22257 15.5371 8.7874 15.5371 8.35211 15.5371Z" fill="#303030" fill-opacity="0.52"/>
</g>
<defs>
<clipPath id="clip0_2202_1879">
<rect width="17" height="17" fill="white" transform="translate(0.5 0.5)"/>
</clipPath>
</defs>
</svg>
