<svg width="15" height="16" viewBox="0 0 15 16" fill="none" xmlns="http://www.w3.org/2000/svg">
<g clip-path="url(#clip0_2188_752)">
<path d="M4.38293 15.5221C4.12778 15.4423 3.85609 15.396 3.62117 15.2772C2.79212 14.8588 2.34837 14.1721 2.29874 13.2441C2.2822 12.932 2.29433 12.618 2.29433 12.3048C2.29433 9.16839 2.29359 6.03236 2.29469 2.89596C2.29506 1.83383 2.90793 0.950375 3.89469 0.620964C4.14102 0.538611 4.41234 0.496698 4.67264 0.495228C6.56014 0.484934 8.448 0.485302 10.3359 0.491184C11.6712 0.495596 12.7046 1.52464 12.7079 2.85626C12.7138 5.30258 12.7101 7.74891 12.709 10.1952C12.709 10.5669 12.4612 10.8265 12.1179 10.8246C11.7756 10.8232 11.5333 10.5632 11.5333 10.1886C11.5322 7.76655 11.5326 5.34486 11.5329 2.9228C11.5329 2.41435 11.334 2.01508 10.8664 1.79229C10.7002 1.71287 10.4998 1.66986 10.3149 1.66912C8.44212 1.6603 6.56896 1.66177 4.6958 1.66471C3.97741 1.66582 3.47227 2.16912 3.4719 2.88604C3.46969 6.29633 3.46969 9.70662 3.47153 13.1166C3.4719 13.8474 3.97925 14.3456 4.71749 14.3463C6.56602 14.3478 8.41455 14.3474 10.2631 14.3467C11.0032 14.3463 11.4778 13.9048 11.5326 13.1688C11.5539 12.8802 11.7105 12.6798 11.9697 12.6088C12.2043 12.5449 12.4642 12.6243 12.5899 12.8305C12.6554 12.9379 12.7028 13.075 12.7039 13.1993C12.7109 14.3202 11.8392 15.325 10.7304 15.4904C10.6932 15.496 10.6572 15.5107 10.6208 15.521C8.54102 15.5221 6.46198 15.5221 4.38293 15.5221Z" fill="#303030" fill-opacity="0.52"/>
<path d="M7.49463 3.7499C7.29867 3.7499 7.10235 3.75395 6.90639 3.74917C6.58875 3.74071 6.34426 3.50615 6.32625 3.19917C6.30787 2.88777 6.53213 2.60284 6.85382 2.5874C7.28397 2.56645 7.71669 2.56681 8.14683 2.58703C8.46816 2.60248 8.69316 2.8863 8.67588 3.1977C8.6586 3.50468 8.41448 3.74108 8.0972 3.74917C7.89647 3.75431 7.69536 3.7499 7.49463 3.7499Z" fill="#303030" fill-opacity="0.52"/>
<path d="M7.49502 13.4385C7.17075 13.4356 6.90899 13.1676 6.91414 12.8441C6.91928 12.5282 7.18436 12.2676 7.50053 12.2668C7.82223 12.2661 8.09061 12.5352 8.08877 12.8569C8.0873 13.1804 7.82112 13.4411 7.49502 13.4385Z" fill="#303030" fill-opacity="0.52"/>
</g>
<defs>
<clipPath id="clip0_2188_752">
<rect width="15" height="15" fill="white" transform="translate(0 0.5)"/>
</clipPath>
</defs>
</svg>
