<svg width="18" height="18" viewBox="0 0 18 18" fill="none" xmlns="http://www.w3.org/2000/svg">
<g clip-path="url(#clip0_2202_1883)">
<path d="M17.4746 3.41334C17.4746 3.50162 17.4746 3.5899 17.4746 3.67821C17.3804 3.8315 17.2982 3.99387 17.19 4.13659C16.6771 4.8136 16.157 5.48519 15.6399 6.15905C15.6073 6.20151 15.5784 6.24683 15.5459 6.29364C15.9548 6.84021 16.3616 7.37579 16.759 7.9183C17.005 8.25411 17.2366 8.60042 17.4746 8.94203C17.4746 9.03031 17.4746 9.11858 17.4746 9.2069C17.3929 9.47152 17.2318 9.65297 16.9595 9.73975C15.1544 10.3149 13.351 10.8953 11.5462 11.4711C11.1829 11.587 10.9328 11.502 10.7075 11.1943C10.4013 10.776 10.0996 10.3545 9.79554 9.93467C9.76146 9.88765 9.72456 9.84262 9.6707 9.77304C9.6707 11.6544 9.6707 13.5045 9.6707 15.3614C9.70702 15.3557 9.73978 15.3539 9.77058 15.3451C10.931 15.0165 12.0942 14.6973 13.2502 14.3539C13.8304 14.1815 14.1593 13.7198 14.1963 13.1116C14.2213 12.7026 14.5092 12.4132 14.8763 12.4279C15.2619 12.4435 15.5275 12.7466 15.5197 13.1623C15.498 14.321 14.7005 15.3212 13.5283 15.6582C12.5014 15.9534 11.4735 16.2447 10.4476 16.543C9.54697 16.8049 8.64402 16.8309 7.73941 16.5767C6.64192 16.2682 5.54434 15.9596 4.45132 15.6358C3.24984 15.2799 2.51291 14.2764 2.511 13.0214C2.50963 12.1386 2.50756 11.2558 2.5142 10.3731C2.51519 10.2433 2.47298 10.196 2.35311 10.1598C1.91036 10.0259 1.47044 9.88234 1.0318 9.73544C0.527973 9.56672 0.376134 9.0838 0.68881 8.65332C0.815191 8.47934 0.94833 8.31026 1.07848 8.13901C1.5488 7.52021 2.0192 6.90141 2.49566 6.27461C2.45569 6.22257 2.42011 6.17452 2.38276 6.12795C2.05151 5.71481 1.71992 5.30192 1.38846 4.88898C1.15714 4.60077 0.92113 4.31617 0.69561 4.02344C0.368505 3.59893 0.528844 3.09868 1.03942 2.93353C1.11796 2.90811 1.1979 2.88697 1.27734 2.86437C3.04663 2.361 4.81703 1.86166 6.58429 1.35124C6.9563 1.24381 7.2392 1.33064 7.47309 1.63307C7.65524 1.86858 7.85016 2.09427 8.03953 2.32418C8.35797 2.71075 8.67653 3.09723 9.00459 3.49532C9.05293 3.43814 9.09199 3.3941 9.12865 3.3482C9.58636 2.77485 10.047 2.20386 10.4998 1.62664C10.732 1.33051 11.0103 1.24593 11.3749 1.34826C13.1885 1.85714 15.0038 2.35963 16.821 2.85541C17.1363 2.94137 17.3707 3.09354 17.4746 3.41334ZM3.83489 10.6409C3.83489 10.7199 3.83489 10.7789 3.83489 10.8379C3.83489 11.5439 3.83476 12.2499 3.83493 12.9558C3.8351 13.7179 4.18878 14.1894 4.91787 14.3974C5.95027 14.6919 6.98279 14.9859 8.0156 15.279C8.11756 15.3079 8.22184 15.3286 8.32334 15.3527C8.32334 13.4813 8.32334 11.6289 8.32334 9.75003C8.27251 9.81774 8.23913 9.8614 8.20662 9.90568C7.88989 10.3366 7.57514 10.7689 7.25608 11.1981C7.02803 11.5048 6.78107 11.5846 6.41594 11.4703C6.00616 11.3419 5.5982 11.2078 5.18941 11.0763C4.74476 10.9332 4.30002 10.7903 3.83489 10.6409ZM15.7246 8.7443C15.3432 8.23442 14.9736 7.74735 14.6134 7.2534C14.5374 7.1492 14.4735 7.11934 14.3447 7.15699C13.3729 7.44102 12.3985 7.71608 11.4251 7.99435C11.0463 8.10261 10.6678 8.2119 10.275 8.32481C10.3156 8.38601 10.344 8.43203 10.3756 8.47578C10.7305 8.96708 11.0891 9.45577 11.4384 9.95096C11.5108 10.0535 11.571 10.0792 11.6938 10.0389C12.504 9.77263 13.3171 9.51531 14.1292 9.25517C14.6525 9.08749 15.1758 8.92002 15.7246 8.7443ZM7.71715 8.33364C7.6892 8.31913 7.68004 8.31229 7.66971 8.30934C6.31643 7.91992 4.96344 7.52962 3.60837 7.14658C3.56297 7.13373 3.47768 7.17889 3.44351 7.22251C3.1582 7.58676 2.88052 7.95699 2.60048 8.32535C2.4984 8.45961 2.39623 8.59382 2.2803 8.74624C2.51059 8.82088 2.71815 8.8885 2.92597 8.95543C4.04639 9.31637 5.16686 9.67706 6.28724 10.0381C6.35951 10.0614 6.42361 10.0995 6.48896 10.0094C6.89282 9.45257 7.30164 8.89937 7.71715 8.33364ZM10.1451 4.19908C10.1848 4.21691 10.2081 4.23088 10.2334 4.23818C11.6189 4.63763 13.005 5.03527 14.3896 5.43817C14.4841 5.46566 14.5267 5.43684 14.579 5.36805C14.9226 4.91614 15.2701 4.46722 15.6155 4.01664C15.6367 3.98894 15.6503 3.95531 15.6695 3.92069C15.6214 3.90489 15.5853 3.89138 15.5483 3.88113C14.3072 3.53707 13.0661 3.19288 11.8247 2.85006C11.6613 2.80495 11.4734 2.69992 11.3375 2.74499C11.2004 2.79048 11.1119 2.98689 11.0054 3.11978C10.7201 3.47566 10.4367 3.833 10.1451 4.19908ZM2.32836 3.94246C2.73101 4.4447 3.1111 4.92344 3.49999 5.39492C3.5298 5.43104 3.62774 5.43775 3.68355 5.42171C5.03729 5.03261 6.38966 4.63867 7.74207 4.24493C7.7805 4.23374 7.81691 4.21562 7.86604 4.19605C7.4726 3.71814 7.08877 3.25657 6.71179 2.78948C6.64636 2.70842 6.58706 2.72779 6.51061 2.74964C5.60073 3.01003 4.69036 3.26864 3.7802 3.52795C3.3049 3.66341 2.82977 3.79928 2.32836 3.94246ZM5.47402 6.28303C5.54102 6.30952 5.56872 6.32325 5.59795 6.33162C6.67132 6.64019 7.74381 6.95208 8.81979 7.25136C8.94447 7.28603 9.09631 7.27819 9.22256 7.24315C10.2722 6.95183 11.3189 6.64965 12.3662 6.35007C12.4137 6.33651 12.4593 6.31636 12.5373 6.28767C12.4719 6.26528 12.4464 6.25529 12.4202 6.24774C11.31 5.92777 10.2 5.60692 9.08872 5.29085C9.02544 5.27285 8.94724 5.28015 8.88252 5.29856C8.19987 5.49273 7.51862 5.69172 6.83688 5.88912C6.39583 6.01687 5.95466 6.14417 5.47402 6.28303Z" fill="#303030" fill-opacity="0.52"/>
</g>
<defs>
<clipPath id="clip0_2202_1883">
<rect width="17" height="17" fill="white" transform="translate(0.5 0.5)"/>
</clipPath>
</defs>
</svg>
