<svg width="15" height="16" viewBox="0 0 15 16" fill="none" xmlns="http://www.w3.org/2000/svg">
<g clip-path="url(#clip0_2145_53)">
<path d="M0.457324 15.5221C0.102913 15.3974 -0.0235585 15.1426 -0.0165732 14.7746C-0.00223492 14.0018 -0.00738055 13.2287 -0.0151011 12.4559C-0.017307 12.2132 0.0643095 12.025 0.234162 11.8555C1.85879 10.2353 3.47975 8.61176 5.10254 6.99044C5.14041 6.95257 5.18894 6.9261 5.21872 6.90441C5.06725 6.57537 4.91026 6.28603 4.7974 5.98052C4.44299 5.02169 4.64777 4.16801 5.35144 3.44412C6.08784 2.6864 6.84225 1.94632 7.59593 1.20588C8.33747 0.477574 9.31578 0.309559 10.2757 0.707353C11.2143 1.09632 12.0801 1.59669 12.8283 2.28971C13.5926 2.99779 14.1636 3.84375 14.6025 4.78309C14.782 5.16728 14.9496 5.55662 15.0176 5.98015C15.0176 6.13676 15.0176 6.29338 15.0176 6.45C14.965 6.65184 14.9261 6.85846 14.857 7.05441C14.7382 7.39191 14.5297 7.67537 14.2775 7.92684C13.5286 8.67279 12.782 9.42059 12.0294 10.1625C11.2636 10.9176 10.2474 11.0919 9.27497 10.6327C8.91762 10.464 8.56762 10.2783 8.22129 10.0875C7.9996 9.96507 7.90071 9.76029 7.93196 9.50809C7.96247 9.2625 8.10438 9.09669 8.34152 9.02206C8.51431 8.96765 8.67644 9.00478 8.83527 9.08897C9.14997 9.25625 9.46468 9.42426 9.78637 9.57721C10.2941 9.81875 10.7878 9.73713 11.1886 9.34228C11.9551 8.58677 12.7176 7.82684 13.4772 7.06434C13.8577 6.68235 13.9353 6.21176 13.7294 5.71471C13.4456 5.02904 13.0959 4.38272 12.632 3.80073C11.9779 2.97941 11.1511 2.38603 10.2011 1.95772C9.96651 1.85184 9.72387 1.75221 9.4746 1.69301C9.12019 1.60919 8.79887 1.72059 8.51982 1.9511C8.4746 1.98824 8.43196 2.02904 8.39041 2.07022C7.66173 2.79448 6.93269 3.51875 6.20548 4.24449C5.76909 4.67978 5.68453 5.16691 5.95549 5.71581C6.10254 6.0136 6.25953 6.30662 6.41799 6.59853C6.60622 6.94522 6.57791 7.17647 6.2996 7.45515C4.62534 9.13015 2.95181 10.8051 1.27497 12.4776C1.19188 12.5607 1.15806 12.6415 1.15916 12.7585C1.16541 13.2812 1.16174 13.8044 1.16174 14.3375C1.63196 14.3375 2.09335 14.3375 2.57093 14.3375C2.57093 14.0228 2.57093 13.7114 2.57093 13.3996C2.57129 12.9228 2.79188 12.7037 3.27277 12.7037C3.58012 12.7037 3.88784 12.7037 4.20732 12.7037C4.21027 12.6478 4.21431 12.6007 4.21468 12.5537C4.21541 12.2504 4.21027 11.9467 4.21688 11.6434C4.22424 11.3121 4.46541 11.0658 4.79409 11.0621C5.34666 11.0555 5.8996 11.0559 6.45255 11.0621C6.78122 11.0658 7.02975 11.3232 7.03196 11.6423C7.03416 11.9599 6.78894 12.2199 6.4599 12.2309C6.16174 12.2408 5.86321 12.2338 5.56468 12.2342C5.51174 12.2342 5.4588 12.2342 5.38894 12.2342C5.38894 12.5522 5.38894 12.8585 5.38894 13.1651C5.38894 13.661 5.17056 13.8783 4.67313 13.8783C4.37056 13.8783 4.06762 13.8783 3.74519 13.8783C3.74519 14.0706 3.74519 14.2544 3.74519 14.4386C3.74519 14.5511 3.73784 14.6643 3.74666 14.7761C3.77534 15.1441 3.63049 15.3989 3.27571 15.5235C2.336 15.5221 1.39666 15.5221 0.457324 15.5221Z" fill="#303030" fill-opacity="0.52"/>
<path d="M10.6681 5.53934C10.1567 5.53639 9.73683 5.11617 9.73463 4.60478C9.73242 4.09044 10.1644 3.65919 10.6776 3.66287C11.1879 3.66691 11.6096 4.0897 11.6111 4.59926C11.6126 5.11507 11.1843 5.54191 10.6681 5.53934Z" fill="#303030" fill-opacity="0.52"/>
</g>
<defs>
<clipPath id="clip0_2145_53">
<rect width="15" height="15" fill="white" transform="translate(0 0.5)"/>
</clipPath>
</defs>
</svg>
