<svg width="32" height="32" viewBox="0 0 32 32" fill="none" xmlns="http://www.w3.org/2000/svg">
<path d="M7.52075 12.9166C7.17696 12.9166 6.84704 12.9691 6.51867 13.0169C6.62504 12.6592 6.7345 12.2954 6.91025 11.9685C7.086 11.4937 7.36042 11.0821 7.63329 10.6674C7.86146 10.2187 8.26383 9.91502 8.55983 9.53114C8.86971 9.15806 9.29213 8.90985 9.62667 8.59997C9.95504 8.27622 10.3852 8.11435 10.7274 7.88618C11.0851 7.68114 11.3965 7.45452 11.7295 7.3466L12.5605 7.00435L13.2912 6.70064L12.5435 3.71289L11.6231 3.93489C11.3287 4.00889 10.9695 4.09522 10.5609 4.19852C10.1431 4.2756 9.69758 4.48681 9.20117 4.67952C8.71092 4.89843 8.14358 5.04643 7.61633 5.39793C7.086 5.73402 6.47396 6.0146 5.93438 6.46477C5.41175 6.92881 4.78121 7.33118 4.31563 7.92164C3.80688 8.47356 3.30429 9.05323 2.91425 9.71306C2.46254 10.3421 2.15575 11.0327 1.832 11.7157C1.53909 12.3986 1.30321 13.097 1.1105 13.7754C0.745127 15.1351 0.58171 16.427 0.518502 17.5324C0.466085 18.6393 0.496919 19.5597 0.561669 20.2257C0.584794 20.5402 0.62796 20.8454 0.658794 21.0566L0.697335 21.3156L0.737419 21.3064C1.01162 22.5873 1.64284 23.7643 2.55807 24.7014C3.4733 25.6385 4.63512 26.2974 5.90915 26.6018C7.18318 26.9061 8.51735 26.8436 9.75733 26.4214C10.9973 25.9992 12.0924 25.2346 12.916 24.216C13.7395 23.1974 14.2579 21.9664 14.4111 20.6655C14.5643 19.3646 14.3461 18.0469 13.7817 16.8649C13.2173 15.6828 12.3297 14.6847 11.2218 13.986C10.1138 13.2873 8.83064 12.9166 7.52075 12.9166ZM24.4791 12.9166C24.1353 12.9166 23.8054 12.9691 23.477 13.0169C23.5834 12.6592 23.6928 12.2954 23.8686 11.9685C24.0443 11.4937 24.3187 11.0821 24.5916 10.6674C24.8198 10.2187 25.2222 9.91502 25.5182 9.53114C25.828 9.15806 26.2505 8.90985 26.585 8.59997C26.9134 8.27622 27.3435 8.11435 27.6857 7.88618C28.0434 7.68114 28.3548 7.45452 28.6878 7.3466L29.5188 7.00435L30.2495 6.70064L29.5018 3.71289L28.5815 3.93489C28.287 4.00889 27.9278 4.09522 27.5192 4.19852C27.1015 4.2756 26.6559 4.48681 26.1595 4.67952C25.6708 4.89997 25.1019 5.04643 24.5747 5.39947C24.0443 5.73556 23.4323 6.01614 22.8927 6.46631C22.3701 6.93035 21.7395 7.33273 21.274 7.92164C20.7652 8.47356 20.2626 9.05323 19.8726 9.71306C19.4209 10.3421 19.1141 11.0327 18.7903 11.7157C18.4974 12.3986 18.2615 13.097 18.0688 13.7754C17.7035 15.1351 17.54 16.427 17.4768 17.5324C17.4244 18.6393 17.4552 19.5597 17.52 20.2257C17.5431 20.5402 17.5863 20.8454 17.6171 21.0566L17.6557 21.3156L17.6957 21.3064C17.9699 22.5873 18.6012 23.7643 19.5164 24.7014C20.4316 25.6385 21.5935 26.2974 22.8675 26.6018C24.1415 26.9061 25.4757 26.8436 26.7157 26.4214C27.9556 25.9992 29.0507 25.2346 29.8743 24.216C30.6979 23.1974 31.2162 21.9664 31.3694 20.6655C31.5226 19.3646 31.3044 18.0469 30.74 16.8649C30.1756 15.6828 29.2881 14.6847 28.1801 13.986C27.0721 13.2873 25.789 12.9166 24.4791 12.9166Z" fill="#303030"/>
</svg>
