<svg width="15" height="16" viewBox="0 0 15 16" fill="none" xmlns="http://www.w3.org/2000/svg">
<g clip-path="url(#clip0_2188_464)">
<path d="M7.96777 0.5C8.24668 0.538086 8.52676 0.57002 8.80479 0.61543C11.728 1.09531 14.1975 3.45869 14.8074 6.36582C15.2404 8.42891 14.8821 10.3481 13.7442 12.1218C13.6013 12.3444 13.4018 12.4525 13.1384 12.4156C12.8973 12.3819 12.7153 12.2018 12.6597 11.9606C12.6172 11.7764 12.6749 11.6161 12.7751 11.4632C13.1794 10.8462 13.4888 10.1832 13.6382 9.45986C14.1743 6.86416 13.4229 4.70176 11.3812 3.02334C10.1779 2.03428 8.75879 1.61738 7.20605 1.67832C4.31035 1.7917 1.821 3.96758 1.29453 6.83545C0.71504 9.99336 2.54346 13.0689 5.60059 14.0302C7.3748 14.588 9.08223 14.3788 10.6988 13.4551C10.8515 13.3678 11.005 13.3048 11.1837 13.3435C11.4242 13.3953 11.6044 13.5805 11.646 13.8166C11.6885 14.056 11.5813 14.2906 11.3589 14.426C10.739 14.803 10.0789 15.0919 9.37315 15.2568C8.94805 15.3562 8.51094 15.4036 8.0794 15.4748C8.0416 15.481 8.00469 15.4915 7.96719 15.5C7.65518 15.5 7.34346 15.5 7.03145 15.5C6.99395 15.4918 6.95703 15.481 6.91895 15.4754C6.56768 15.4238 6.2123 15.3922 5.86572 15.3189C2.96328 14.7063 0.610744 12.2378 0.12881 9.30693C0.083107 9.02861 0.0517578 8.74824 0.0136719 8.46875C0.0136719 8.15615 0.0136719 7.84385 0.0136719 7.53125C0.022168 7.48877 0.0324232 7.44687 0.0388685 7.4041C0.0886732 7.0666 0.120314 6.72559 0.189162 6.39248C0.793556 3.46777 3.25772 1.09971 6.19443 0.615723C6.47217 0.57002 6.75225 0.538379 7.03115 0.500293C7.34404 0.5 7.65576 0.5 7.96777 0.5Z" fill="#303030" fill-opacity="0.52"/>
<path d="M8.11352 5.14999C8.11352 5.72128 8.11469 6.29228 8.11234 6.86357C8.11205 6.94179 8.12904 6.99277 8.19877 7.04462C8.59017 7.33378 8.74809 7.72314 8.68187 8.20829C8.67396 8.2663 8.71059 8.34833 8.75365 8.39228C9.22504 8.87275 9.70082 9.34882 10.1775 9.82372C10.3562 10.0018 10.4233 10.2101 10.3483 10.4513C10.2185 10.869 9.70053 10.9921 9.37767 10.6798C9.05892 10.3713 8.74955 10.0528 8.43578 9.73876C8.26 9.56269 8.08803 9.3828 7.90609 9.21347C7.86449 9.1748 7.78627 9.14784 7.7309 9.15605C7.18158 9.23954 6.65775 8.95536 6.44916 8.45146C6.23822 7.94228 6.39848 7.37392 6.85346 7.04755C6.92846 6.99364 6.94516 6.93798 6.94486 6.85448C6.94281 5.72187 6.94193 4.58925 6.94428 3.45693C6.94516 3.02685 7.32865 2.74238 7.71889 2.87655C7.96 2.95946 8.11146 3.17655 8.11234 3.45136C8.11469 4.01737 8.11352 4.58368 8.11352 5.14999Z" fill="#303030" fill-opacity="0.52"/>
</g>
<defs>
<clipPath id="clip0_2188_464">
<rect width="15" height="15" fill="white" transform="translate(0 0.5)"/>
</clipPath>
</defs>
</svg>
