<svg width="16" height="15" viewBox="0 0 16 15" fill="none" xmlns="http://www.w3.org/2000/svg">
<g clip-path="url(#clip0_2145_40)">
<path d="M0.484375 2.66397C0.54761 2.5011 0.596875 2.33088 0.677022 2.17647C1.00901 1.53676 1.54798 1.21948 2.26195 1.19816C2.60901 1.18787 2.95643 1.19375 3.30386 1.19706C3.66195 1.20073 3.92114 1.45331 3.91783 1.78897C3.91489 2.11875 3.65827 2.36581 3.30754 2.36948C2.97004 2.37316 2.63254 2.36875 2.29504 2.37095C1.93033 2.37316 1.66011 2.61801 1.65974 2.94265C1.65974 3.26728 1.93217 3.48676 2.29393 3.52095C2.86415 3.575 3.34173 3.41066 3.82739 3.10478C5.43585 2.09154 7.07004 1.11948 8.69688 0.135292C8.79908 0.0735271 8.91636 0.0158071 9.03217 0.00146889C9.29063 -0.0305164 9.48401 0.0922769 9.61526 0.314336C9.80165 0.629777 9.98768 0.945586 10.1741 1.26139C10.2009 1.30662 10.2292 1.3511 10.2619 1.40404C10.7406 1.10735 11.2097 0.81838 11.677 0.525733C11.8774 0.399998 12.0906 0.347792 12.2991 0.472792C12.4149 0.542277 12.5189 0.654042 12.5903 0.769851C13.2248 1.79706 13.8502 2.82941 14.4803 3.85919C14.52 3.92426 14.5726 3.98566 14.6314 4.03419C15.2131 4.51691 15.5061 5.13639 15.5131 5.89007C15.5178 6.42316 15.5142 6.95661 15.5142 7.4897C15.5142 8.45331 15.5145 9.41728 15.5142 10.3809C15.5138 10.8294 15.2862 11.0592 14.8388 11.0596C14.0119 11.0603 13.1851 11.0665 12.3586 11.0577C11.359 11.0467 10.5836 10.2294 10.6142 9.23382C10.6417 8.3272 11.3914 7.56507 12.2983 7.54264C12.9193 7.5272 13.5406 7.53823 14.1619 7.5375C14.2153 7.5375 14.2682 7.5375 14.3403 7.5375C14.3403 7.47647 14.3403 7.42463 14.3403 7.37279C14.3403 6.89816 14.341 6.4239 14.3403 5.94926C14.3388 5.18787 13.8428 4.69044 13.0818 4.69044C9.53033 4.6897 5.97886 4.69154 2.42702 4.6875C2.17555 4.68713 1.92371 4.64706 1.65937 4.62389C1.65937 4.66434 1.65937 4.72169 1.65937 4.77904C1.65937 7.36691 1.65937 9.95478 1.65937 12.5426C1.65937 13.3651 2.14063 13.8485 2.95938 13.8485C6.30533 13.8485 9.65165 13.8445 12.9976 13.8522C13.6281 13.8537 14.0642 13.6074 14.2994 13.0121C14.4053 12.7441 14.6781 12.6033 14.9369 12.6544C15.2178 12.7099 15.4436 12.9445 15.4153 13.2184C15.395 13.4154 15.3197 13.6184 15.2226 13.7934C14.8436 14.4783 14.2553 14.8757 13.4818 14.9993C13.4638 15.0022 13.4476 15.0147 13.4307 15.0228C9.81048 15.0228 6.18989 15.0228 2.56967 15.0228C2.54798 15.014 2.52702 15 2.50423 14.9963C1.67886 14.8632 1.07665 14.4206 0.716728 13.6699C0.607169 13.4415 0.560844 13.1831 0.485477 12.9386C0.484374 9.51323 0.484375 6.0886 0.484375 2.66397ZM8.88658 1.3897C7.72482 2.09595 6.58143 2.79117 5.40496 3.50662C7.00459 3.50662 8.56048 3.50662 10.1373 3.50662C9.71673 2.79522 9.3057 2.09926 8.88658 1.3897ZM14.334 8.71397C13.6553 8.71397 12.991 8.70882 12.327 8.71948C12.223 8.72095 12.1083 8.77684 12.0197 8.83787C11.8138 8.98015 11.741 9.23823 11.8164 9.47684C11.8932 9.71949 12.1108 9.88198 12.3833 9.88382C12.9796 9.8875 13.5763 9.88529 14.1726 9.88529C14.2248 9.88529 14.2767 9.88529 14.3344 9.88529C14.334 9.4886 14.334 9.10919 14.334 8.71397ZM10.8583 2.41654C11.0711 2.77647 11.2781 3.12904 11.4906 3.47831C11.5064 3.50441 11.566 3.51323 11.6053 3.5136C12.0013 3.51617 12.3972 3.51544 12.7932 3.51434C12.8186 3.51434 12.8443 3.50551 12.8833 3.49853C12.5329 2.92463 12.191 2.3647 11.8472 1.80184C11.509 2.01213 11.1899 2.21029 10.8583 2.41654Z" fill="#303030" fill-opacity="0.52"/>
</g>
<defs>
<clipPath id="clip0_2145_40">
<rect width="15" height="15" fill="white" transform="translate(0.5)"/>
</clipPath>
</defs>
</svg>
