<svg width="15" height="16" viewBox="0 0 15 16" fill="none" xmlns="http://www.w3.org/2000/svg">
<g clip-path="url(#clip0_2202_1873)">
<path d="M11.6266 10.9362C11.9759 11.2844 12.3199 11.6267 12.6632 11.9697C13.2205 12.5266 13.7793 13.0819 14.3336 13.6418C14.5687 13.8793 14.6547 14.1656 14.5548 14.491C14.458 14.8063 14.2397 15.0023 13.9188 15.0704C13.5944 15.1394 13.3305 15.0181 13.1021 14.7888C12.2682 13.9514 11.4312 13.1172 10.5963 12.2808C10.5456 12.23 10.504 12.1701 10.4552 12.1109C8.85572 13.2705 7.11372 13.663 5.21396 13.226C3.70983 12.88 2.49845 12.058 1.59478 10.8087C-0.249731 8.25849 0.093855 4.73753 2.38143 2.59838C4.68881 0.440683 8.20946 0.332701 10.641 2.34323C13.1328 4.40355 13.7102 8.14757 11.6266 10.9362ZM6.65349 11.7111C9.17819 11.7118 11.2083 9.68767 11.2152 7.1626C11.2223 4.63165 9.19001 2.5937 6.65653 2.59107C4.13356 2.5885 2.10166 4.61489 2.09541 7.13981C2.08916 9.67265 4.12096 11.7103 6.65349 11.7111Z" fill="#303030" fill-opacity="0.52"/>
</g>
<defs>
<clipPath id="clip0_2202_1873">
<rect width="15" height="15" fill="white" transform="translate(0 0.5)"/>
</clipPath>
</defs>
</svg>
