<svg width="15" height="14" viewBox="0 0 15 14" fill="none" xmlns="http://www.w3.org/2000/svg">
<g clip-path="url(#clip0_2111_38)">
<path d="M7.46028 0.0301819C7.73822 0.0301819 7.90146 0.141838 8.01175 0.360857C8.65587 1.63632 9.3044 2.90748 9.9441 4.18294C9.98822 4.27313 10.0412 4.31607 10.147 4.33325C11.5809 4.53079 13.0147 4.73693 14.4485 4.93877C14.8456 4.9946 15.0662 5.20932 15.0044 5.53141C14.9823 5.65595 14.8985 5.79337 14.8015 5.88356C13.7603 6.88417 12.7147 7.87619 11.6647 8.86392C11.5897 8.93264 11.5632 8.99276 11.5809 9.10012C11.8368 10.5173 12.0794 11.9345 12.3309 13.3474C12.3706 13.5707 12.3088 13.7553 12.1235 13.8842C11.9338 14.0173 11.7353 14.0087 11.5323 13.9056C10.2353 13.24 8.93822 12.5786 7.64557 11.913C7.53528 11.8572 7.45146 11.8572 7.34116 11.9173C6.05734 12.5786 4.76469 13.2271 3.48528 13.897C3.08381 14.1075 2.68234 13.8799 2.64705 13.5191C2.63822 13.4332 2.65587 13.3474 2.6691 13.2658C2.91175 11.8744 3.1544 10.4872 3.40587 9.09583C3.42352 8.98846 3.39263 8.92834 3.32205 8.85963C2.27205 7.8676 1.22646 6.87558 0.185281 5.87926C0.0926337 5.78908 0.013222 5.66454 -0.0132486 5.54C-0.0750133 5.25227 0.114692 5.00748 0.414692 4.96024C0.997045 4.87006 1.5794 4.78846 2.16175 4.70687C3.0441 4.58233 3.92646 4.45349 4.81322 4.33754C4.93675 4.32037 5.00293 4.27313 5.05587 4.16576C5.69558 2.8946 6.3441 1.62773 6.98381 0.356562C7.0941 0.150428 7.25293 0.0344764 7.46028 0.0301819Z" fill="#E69B40"/>
</g>
<defs>
<clipPath id="clip0_2111_38">
<rect width="15" height="14" fill="white"/>
</clipPath>
</defs>
</svg>
