<svg width="15" height="16" viewBox="0 0 15 16" fill="none" xmlns="http://www.w3.org/2000/svg">
<path d="M0.0200192 12.5996C0.184961 12.2301 0.408203 12.086 0.719629 12.1408C0.920898 12.1762 1.12246 12.2149 1.32549 12.2334C2.17598 12.3101 3.00859 12.2459 3.80107 11.8941C3.86728 11.8648 3.93115 11.8299 4.03486 11.7781C3.94902 11.7526 3.89834 11.7365 3.84678 11.7227C3.15098 11.5343 2.4959 11.254 1.89766 10.8479C1.61729 10.6578 1.51738 10.4237 1.59561 10.1539C1.67471 9.88111 1.88447 9.74575 2.21875 9.72495C2.43877 9.71118 2.65732 9.67193 2.87676 9.64409C2.87764 9.63003 2.87852 9.61597 2.8794 9.6022C2.83516 9.57876 2.7915 9.55357 2.74609 9.53189C1.79189 9.07486 1.04805 8.39868 0.59629 7.42896C0.530958 7.28892 0.486426 7.11753 0.499902 6.96695C0.534179 6.58521 0.944043 6.37222 1.30059 6.52163C1.44209 6.58081 1.59004 6.62564 1.73477 6.67691C1.74297 6.66548 1.75117 6.65435 1.75937 6.64292C1.73301 6.60044 1.70723 6.55796 1.68027 6.51577C1.03867 5.51324 0.631153 4.419 0.410547 3.2521C0.359277 2.98023 0.493457 2.72388 0.734864 2.60904C0.9792 2.49302 1.24287 2.55074 1.43594 2.76607C2.66582 4.13804 4.17666 5.04536 5.95996 5.49009C6.40645 5.60142 6.86641 5.65855 7.3457 5.74497C7.33457 5.60113 7.32871 5.49654 7.31787 5.39224C7.13975 3.69595 8.23721 2.22261 9.91094 1.94781C10.8848 1.78785 11.7455 2.06031 12.4601 2.74849C12.5699 2.85425 12.6622 2.86392 12.7923 2.83169C13.3671 2.6896 13.9161 2.48277 14.4344 2.19507C14.4681 2.17632 14.5023 2.15933 14.5773 2.12007C14.3137 2.8771 13.8572 3.4273 13.2147 3.83833C13.3551 3.87525 13.6647 3.81724 14.1016 3.66402C14.3843 3.56499 14.6626 3.45279 14.9796 3.33267C14.8542 3.50435 14.7531 3.65025 14.6444 3.79029C14.3263 4.20074 13.9674 4.57017 13.5575 4.89126C13.508 4.93023 13.4729 5.01988 13.4731 5.0855C13.4802 5.92222 13.4356 6.75367 13.266 7.57544C13.1295 8.23726 12.9265 8.87652 12.6335 9.48589C12.4812 9.80288 12.1524 9.92857 11.8533 9.79087C11.5521 9.6523 11.4238 9.31568 11.5718 9.00191C12.1176 7.84322 12.2989 6.61509 12.3054 5.34624C12.3077 4.86841 12.2201 4.42808 11.9857 4.01411C11.5911 3.31685 10.8405 2.96734 10.0387 3.1106C9.26758 3.24829 8.61367 3.90484 8.49824 4.66187C8.41885 5.18394 8.51963 5.69165 8.62803 6.19849C8.70684 6.56646 8.44697 6.90308 8.07197 6.91392C7.91641 6.91861 7.75996 6.9148 7.60439 6.90659C5.66992 6.80611 3.90654 6.20171 2.31279 5.09956C2.29287 5.08579 2.27236 5.07261 2.25127 5.06031C2.24424 5.0562 2.23486 5.05591 2.20557 5.04888C2.26035 5.15962 2.30693 5.25894 2.35791 5.35591C2.61953 5.85601 2.93535 6.31714 3.33818 6.7147C3.51836 6.89253 3.60684 7.09732 3.52861 7.34986C3.45273 7.59449 3.27402 7.72251 3.02969 7.76617C2.81494 7.80454 2.59961 7.83941 2.36084 7.87984C2.42207 7.93433 2.47451 7.98619 2.53193 8.0316C3.06367 8.4523 3.67598 8.68902 4.33457 8.81792C4.86279 8.92163 5.05146 9.42671 4.68936 9.82779C4.48955 10.049 4.23672 10.2221 4.00615 10.4152C3.97012 10.4454 3.92617 10.4659 3.88604 10.4908C3.88516 10.5072 3.88457 10.5236 3.88369 10.54C4.2625 10.6112 4.64043 10.6859 5.02012 10.7509C5.15401 10.7738 5.2917 10.7744 5.42793 10.7817C5.67314 10.7949 5.85684 10.9044 5.95908 11.1309C6.06162 11.3585 6.01914 11.5707 5.86299 11.7593C5.48154 12.2202 5.02217 12.5837 4.49131 12.858C4.45674 12.8758 4.42188 12.8931 4.38818 12.9122C4.38203 12.9157 4.37998 12.9271 4.36885 12.9494C4.47549 12.9494 4.5751 12.9505 4.67471 12.9491C5.66143 12.9371 6.64053 12.8624 7.58887 12.5624C8.50674 12.272 9.30479 11.781 9.98389 11.0981C10.1491 10.932 10.3349 10.8321 10.5725 10.8831C10.7942 10.9305 10.9469 11.0659 11.014 11.2856C11.0855 11.5185 11.0207 11.7192 10.8525 11.8882C10.319 12.4241 9.72168 12.8732 9.04844 13.2201C8.14404 13.6856 7.179 13.9411 6.17207 14.0322C5.59551 14.0843 5.01514 14.1171 4.43623 14.1174C3.23594 14.1183 2.08106 13.8482 0.949317 13.4673C0.811036 13.4208 0.67627 13.3639 0.536816 13.3211C0.28252 13.2432 0.0985352 13.0947 0.0185547 12.8331C0.0200195 12.7557 0.0200192 12.6778 0.0200192 12.5996Z" fill="#303030" fill-opacity="0.52"/>
</svg>
