<svg width="15" height="16" viewBox="0 0 15 16" fill="none" xmlns="http://www.w3.org/2000/svg">
<g clip-path="url(#clip0_2185_380)">
<path d="M7.85162 0.499968C8.09959 0.547254 8.35075 0.58197 8.59503 0.643787C10.34 1.0855 11.6474 2.62206 11.8128 4.41737C12.0153 6.61437 10.5869 8.5855 8.4278 9.06725C8.11151 9.13783 7.78005 9.16285 7.455 9.16757C6.20578 9.1857 4.98563 9.35483 3.8168 9.81535C3.15469 10.0762 2.53365 10.411 1.99275 10.8791C1.45295 11.3461 1.18272 11.9426 1.17281 12.6553C1.16792 13.0068 1.1705 13.3584 1.17234 13.7099C1.17428 14.0792 1.41908 14.3274 1.78705 14.3274C5.59529 14.3284 9.40351 14.3283 13.2117 14.3275C13.5798 14.3274 13.8291 14.0795 13.8268 13.7109C13.824 13.2525 13.8378 12.7917 13.7965 12.3362C13.7446 11.7649 13.4694 11.2896 13.0413 10.9082C12.604 10.5184 12.1038 10.2271 11.5727 9.98466C11.2661 9.84473 11.1319 9.56319 11.22 9.26814C11.3132 8.9561 11.6494 8.7548 11.9474 8.88142C12.8871 9.28077 13.7497 9.79727 14.3631 10.6447C14.7071 11.12 14.9036 11.6568 14.9735 12.2397C14.9774 12.2724 14.9909 12.3039 15 12.3359C15 12.8828 15 13.4296 15 13.9765C14.9897 14.0077 14.9768 14.0383 14.9696 14.0702C14.8223 14.7235 14.4372 15.1707 13.8091 15.4043C13.7013 15.4444 13.5876 15.4685 13.4766 15.4999C9.49219 15.4999 5.50781 15.4999 1.52344 15.4999C1.49221 15.4897 1.46159 15.4765 1.42966 15.4696C0.912979 15.3582 0.504082 15.0856 0.24583 14.6239C0.134355 14.4246 0.0801855 14.1933 0 13.9765C0 13.4296 0 12.8828 0 12.3359C0.00852539 12.3086 0.0215622 12.2818 0.0249606 12.2539C0.140068 11.314 0.565782 10.5429 1.29018 9.9369C2.09136 9.26662 3.00937 8.81416 4.00049 8.50282C4.27254 8.41736 4.5496 8.34784 4.82484 8.27088C4.81992 8.25488 4.81977 8.2436 4.81409 8.23798C4.79678 8.2209 4.77727 8.2061 4.75875 8.19022C3.59473 7.19325 3.05821 5.93258 3.18996 4.40266C3.33932 2.6682 4.6144 1.14028 6.2925 0.67616C6.57261 0.598699 6.86285 0.557771 7.14841 0.499939C7.38287 0.499968 7.61725 0.499968 7.85162 0.499968ZM10.664 4.84118C10.6666 3.10159 9.25368 1.67902 7.51644 1.67202C5.7694 1.66499 4.3415 3.07968 4.33614 4.8229C4.33075 6.5692 5.7472 7.9956 7.49083 7.99985C9.23613 8.00407 10.6614 6.58534 10.664 4.84118Z" fill="#303030" fill-opacity="0.52"/>
</g>
<defs>
<clipPath id="clip0_2185_380">
<rect width="15" height="15" fill="white" transform="translate(0 0.5)"/>
</clipPath>
</defs>
</svg>
