<svg width="15" height="15" viewBox="0 0 15 15" fill="none" xmlns="http://www.w3.org/2000/svg">
<g clip-path="url(#clip0_2127_216)">
<path d="M7.11719 0C7.42969 0 7.74219 0 8.05469 0C8.23438 0.0195313 8.41406 0.0390624 8.58984 0.0664061C10.2734 0.324219 11.7227 1.03125 12.9062 2.27344C13.9531 3.375 14.6289 4.66406 14.8867 6.16406C14.9336 6.43359 14.9609 6.70313 15 6.97266C15 7.28516 15 7.59766 15 7.91016C14.9922 7.95703 14.9766 8.00391 14.9727 8.05078C14.9062 8.88281 14.707 9.68359 14.3633 10.4453C12.6016 14.3594 7.87109 16.0039 4.07031 14.0273C4.00391 13.9922 3.91016 13.9844 3.83984 14C2.95703 14.2227 2.07422 14.4531 1.19531 14.6836C0.816406 14.7852 0.4375 14.8906 0.0585938 14.9961C0.0390625 14.9766 0.0195312 14.957 0 14.9375C0.015625 14.8984 0.0390626 14.8594 0.0507814 14.8203C0.375 13.6367 0.703125 12.4531 1.02344 11.2695C1.04297 11.1953 1.02734 11.0938 0.992187 11.0273C0.140625 9.46484 -0.125 7.80469 0.191406 6.05859C0.773438 2.82813 3.36719 0.625 6.28516 0.117188C6.55859 0.0703125 6.83984 0.0390625 7.11719 0ZM1.80469 13.1992C1.87109 13.1836 1.91016 13.1797 1.94531 13.168C2.62891 12.9922 3.3125 12.8164 3.99609 12.6328C4.10547 12.6055 4.1875 12.6211 4.28125 12.6758C5.71094 13.5313 7.23828 13.8086 8.86719 13.4453C11.9961 12.7461 14.2891 9.76953 13.6367 6.25781C13.0508 3.08594 10.0352 0.882812 6.83594 1.26562C4.98828 1.48828 3.51953 2.35938 2.45312 3.88672C1.5625 5.16406 1.19531 6.58984 1.37109 8.14453C1.48047 9.11328 1.82031 9.9961 2.35156 10.8086C2.40625 10.8945 2.42188 10.9688 2.39062 11.0664C2.30469 11.3594 2.22266 11.6563 2.14062 11.9531C2.03125 12.3594 1.92187 12.7656 1.80469 13.1992Z" fill="white"/>
<path d="M9.50391 10.9689C9 10.9884 8.57031 10.7931 8.125 10.6407C6.86328 10.2071 5.89063 9.38683 5.0586 8.37511C4.66016 7.88683 4.25781 7.40245 3.9961 6.82433C3.71875 6.21495 3.60547 5.58995 3.89453 4.95714C4.01953 4.68761 4.21094 4.44542 4.38672 4.20323C4.4961 4.0548 4.66406 3.98839 4.84766 3.98058C5.01172 3.97276 5.17969 3.97667 5.34375 3.98448C5.49219 3.9923 5.56641 4.10167 5.61719 4.21886C5.73438 4.48448 5.84766 4.75792 5.96094 5.02745C6.05078 5.2423 6.13672 5.46105 6.23438 5.67198C6.30078 5.82042 6.30078 5.95714 6.20313 6.08605C6.06641 6.27355 5.92578 6.46105 5.77735 6.64464C5.625 6.83605 5.61719 6.89073 5.74219 7.10167C6.33985 8.08995 7.16016 8.81651 8.23438 9.25011C8.46484 9.34386 8.54297 9.32823 8.70313 9.13292C8.87891 8.91808 9.05469 8.70323 9.22656 8.48448C9.33985 8.33995 9.41406 8.30089 9.59375 8.3673C9.83985 8.46105 10.0781 8.57433 10.3164 8.6837C10.4805 8.75792 10.6367 8.84776 10.8008 8.92198C10.918 8.97276 11.043 9.00401 11.1641 9.05089C11.2656 9.08995 11.3164 9.17198 11.3125 9.28136C11.3047 9.78136 11.1992 10.2384 10.7539 10.5509C10.375 10.8204 9.96485 10.9962 9.50391 10.9689Z" fill="white"/>
</g>
<defs>
<clipPath id="clip0_2127_216">
<rect width="15" height="15" fill="white"/>
</clipPath>
</defs>
</svg>
