<svg width="15" height="16" viewBox="0 0 15 16" fill="none" xmlns="http://www.w3.org/2000/svg">
<path d="M0.481445 5.49194C0.504239 5.39488 0.525195 5.29708 0.550195 5.20039C0.801666 4.23348 1.64873 3.55738 2.64909 3.5401C3.2774 3.52944 3.90571 3.53716 4.53439 3.53679C4.58365 3.53679 4.63328 3.53679 4.71012 3.53679C4.71012 3.35039 4.69358 3.17539 4.71306 3.00444C4.81637 2.0923 5.49284 1.41914 6.40204 1.3787C7.15718 1.34525 7.91637 1.34377 8.67152 1.38091C9.62777 1.4276 10.3403 2.21252 10.3575 3.17355C10.3598 3.28789 10.3579 3.40223 10.3579 3.53679C10.4153 3.53679 10.4638 3.53679 10.512 3.53679C11.1359 3.53716 11.7598 3.53054 12.3833 3.53936C13.4487 3.55444 14.3182 4.28017 14.5322 5.32613C14.5568 5.44708 14.5715 5.57208 14.5719 5.69525C14.5748 7.00995 14.5748 8.32466 14.5737 9.63936C14.5734 9.91914 14.4087 10.1287 14.1484 10.1938C13.9123 10.2526 13.6539 10.143 13.5447 9.91988C13.502 9.83274 13.4785 9.72723 13.4767 9.6298C13.4693 9.23017 13.4737 8.83017 13.4737 8.43017C13.4737 8.38642 13.4737 8.34304 13.4737 8.32135C13.3417 8.4412 13.2061 8.56216 13.0726 8.68569C12.4491 9.26436 11.7237 9.64561 10.8903 9.814C10.7947 9.83311 10.7693 9.87061 10.777 9.95811C10.7825 10.0221 10.7792 10.0868 10.7774 10.1511C10.7678 10.4515 10.5388 10.6813 10.2421 10.689C9.94284 10.6967 9.69689 10.4688 9.67887 10.1636C9.67409 10.0824 9.67814 10.0004 9.67814 9.91179C8.24027 9.91179 6.81674 9.91179 5.37887 9.91179C5.37887 9.99525 5.38181 10.0721 5.3785 10.1489C5.3649 10.4625 5.12042 10.696 4.81527 10.689C4.5138 10.682 4.28586 10.4478 4.27887 10.1383C4.27226 9.84414 4.27189 9.84451 3.99284 9.77576C3.07961 9.55076 2.31527 9.0787 1.6877 8.38017C1.66637 8.35628 1.64542 8.33164 1.62299 8.30848C1.61784 8.30297 1.60792 8.30186 1.58292 8.2923C1.58292 8.3423 1.58292 8.38569 1.58292 8.42944C1.58292 9.73936 1.58255 11.0497 1.58292 12.3596C1.58328 13.0677 2.04652 13.5346 2.75424 13.5346C5.9377 13.5357 9.12079 13.5357 12.3042 13.5346C12.9906 13.5342 13.4465 13.0941 13.4737 12.4125C13.4866 12.0975 13.7259 11.8622 14.0303 11.8651C14.3344 11.8684 14.5693 12.11 14.5745 12.425C14.5939 13.6427 13.5899 14.6361 12.3307 14.6375C10.2392 14.6397 8.14762 14.6383 6.05571 14.6383C4.95939 14.6383 3.86306 14.6269 2.76711 14.6412C1.49909 14.6577 0.62299 13.7162 0.504975 12.7408C0.501666 12.7147 0.489902 12.6897 0.481813 12.664C0.481446 10.2732 0.481445 7.88238 0.481445 5.49194ZM10.7873 8.7037C10.8359 8.69304 10.8767 8.68716 10.9153 8.67466C12.3035 8.23274 13.1278 7.28826 13.384 5.85628C13.4866 5.28201 13.2414 4.87355 12.7281 4.70554C12.5958 4.66216 12.4495 4.64267 12.3094 4.64267C9.12189 4.63936 5.93475 4.63936 2.74725 4.6423C2.616 4.6423 2.48145 4.66289 2.35424 4.69598C2.00314 4.78752 1.6024 5.20517 1.63512 5.60995C1.74578 6.97576 2.67299 8.1901 3.96895 8.62208C4.06601 8.65444 4.166 8.6776 4.27777 8.70885C4.27777 8.64966 4.27703 8.61326 4.27777 8.57723C4.28475 8.2537 4.52336 8.00922 4.82961 8.01179C5.13659 8.01436 5.37189 8.25885 5.37814 8.58348C5.37961 8.65113 5.3785 8.71878 5.3785 8.79378C6.81564 8.79378 8.23917 8.79378 9.63439 8.79378C9.68218 8.60591 9.70167 8.41988 9.7774 8.26142C9.86196 8.08495 10.0417 8.01105 10.2384 8.01326C10.5708 8.0173 10.7476 8.23789 10.7873 8.7037ZM9.25718 3.5287C9.25718 3.43164 9.25755 3.34083 9.25718 3.25039C9.25498 2.76363 8.9638 2.47098 8.47704 2.46988C7.84468 2.46877 7.21233 2.46914 6.57998 2.47025C6.52078 2.47025 6.46086 2.47355 6.40204 2.48201C6.12777 2.51988 5.87998 2.73274 5.82777 3.00407C5.79542 3.17208 5.8013 3.34745 5.78917 3.52907C6.95608 3.5287 8.09873 3.5287 9.25718 3.5287Z" fill="#303030" fill-opacity="0.52"/>
</svg>
