<svg width="52" height="42" viewBox="0 0 52 42" fill="none" xmlns="http://www.w3.org/2000/svg">
<g clip-path="url(#clip0_2127_2)">
<path d="M34.2084 12.3322C39.2212 15.22 41.7275 19.5789 41.7275 25.409C41.7275 30.2583 40.0112 34.2358 36.5786 37.3415C33.1459 40.4473 28.9232 42.0001 23.9104 42.0001H-0.363281V-15.2107H22.1941C27.0979 -15.2107 31.2116 -13.6851 34.5353 -10.6338C37.9135 -7.63707 39.6026 -3.79577 39.6026 0.890064C39.6026 5.63039 37.8045 9.44444 34.2084 12.3322ZM22.1941 -4.66756H10.9154V7.91882H22.1941C23.9377 7.91882 25.3816 7.31947 26.5258 6.12077C27.7245 4.92206 28.3239 3.42369 28.3239 1.62563C28.3239 -0.172424 27.7517 -1.6708 26.6075 -2.8695C25.4633 -4.06821 23.9922 -4.66756 22.1941 -4.66756ZM23.9104 31.457C25.8175 31.457 27.3976 30.8304 28.6508 29.5772C29.904 28.2695 30.5306 26.6349 30.5306 24.6734C30.5306 22.7664 29.904 21.1863 28.6508 19.9331C27.3976 18.6254 25.8175 17.9716 23.9104 17.9716H10.9154V31.457H23.9104Z" fill="white"/>
<path d="M11.3514 25.7788H-5.67566V31.4545H11.3514V25.7788Z" fill="white"/>
</g>
<circle cx="47" cy="37" r="5" fill="#446EE7"/>
<defs>
<clipPath id="clip0_2127_2">
<rect width="42" height="42" fill="white"/>
</clipPath>
</defs>
</svg>
