<svg width="52" height="42" viewBox="0 0 52 42" fill="none" xmlns="http://www.w3.org/2000/svg">
<g clip-path="url(#clip0_2127_234)">
<path d="M34.2084 12.3321C39.2212 15.2199 41.7275 19.5788 41.7275 25.4089C41.7275 30.2582 40.0112 34.2357 36.5786 37.3414C33.1459 40.4471 28.9232 42 23.9104 42H-0.363281V-15.2108H22.1941C27.0979 -15.2108 31.2116 -13.6852 34.5353 -10.634C37.9135 -7.63719 39.6026 -3.7959 39.6026 0.889942C39.6026 5.63027 37.8045 9.44432 34.2084 12.3321ZM22.1941 -4.66768H10.9154V7.9187H22.1941C23.9377 7.9187 25.3816 7.31935 26.5258 6.12064C27.7245 4.92194 28.3239 3.42356 28.3239 1.62551C28.3239 -0.172546 27.7517 -1.67092 26.6075 -2.86963C25.4633 -4.06833 23.9922 -4.66768 22.1941 -4.66768ZM23.9104 31.4569C25.8175 31.4569 27.3976 30.8303 28.6508 29.5771C29.904 28.2694 30.5306 26.6348 30.5306 24.6733C30.5306 22.7663 29.904 21.1862 28.6508 19.933C27.3976 18.6253 25.8175 17.9715 23.9104 17.9715H10.9154V31.4569H23.9104Z" fill="#303030"/>
<path d="M11.3512 25.7789H-5.67578V31.4546H11.3512V25.7789Z" fill="white"/>
</g>
<circle cx="47" cy="37" r="5" fill="#446EE7"/>
<defs>
<clipPath id="clip0_2127_234">
<rect width="42" height="42" fill="white"/>
</clipPath>
</defs>
</svg>
