<svg width="34" height="34" viewBox="0 0 34 34" fill="none" xmlns="http://www.w3.org/2000/svg">
<g clip-path="url(#clip0_2115_231)">
<path d="M17.1986 0C17.8288 0.153398 18.1575 0.567774 18.3527 1.17938C19.4006 4.45985 20.4778 7.73102 21.5343 11.0088C21.6153 11.2612 21.7202 11.3455 21.9905 11.3448C25.4516 11.3342 28.9127 11.3415 32.3744 11.3349C32.9395 11.3336 33.4263 11.4644 33.7298 11.9817C34.1096 12.6298 33.9556 13.3158 33.3207 13.7826C32.2728 14.5523 31.219 15.3133 30.1671 16.0776C28.3754 17.3792 26.5871 18.6854 24.7875 19.9757C24.5631 20.137 24.5405 20.2718 24.6208 20.5175C25.7099 23.8425 26.7897 27.1701 27.8681 30.4991C28.1145 31.2601 27.8575 31.8963 27.1835 32.213C26.6695 32.4541 26.2053 32.3372 25.7624 32.0131C24.3041 30.9466 22.8398 29.8868 21.3782 28.825C20.0056 27.8275 18.6297 26.8341 17.2637 25.8281C17.0605 25.678 16.9336 25.6839 16.7278 25.8347C13.9088 27.8966 11.0819 29.9479 8.25502 31.9992C7.57634 32.4919 6.90564 32.4561 6.38568 31.8969C6.01247 31.4958 5.95205 31.0343 6.12338 30.517C6.57361 29.1597 7.0099 27.797 7.4515 26.437C8.09431 24.4594 8.73181 22.4798 9.38592 20.5063C9.47092 20.2493 9.41646 20.1238 9.2033 19.9697C6.41689 17.9569 3.63978 15.9309 0.854038 13.9168C0.484819 13.6498 0.183335 13.3516 0.0657959 12.9001C0.0657959 12.746 0.0657959 12.5913 0.0657959 12.4372C0.438335 11.5374 0.741813 11.3382 1.74455 11.3382C5.16978 11.3382 8.59568 11.3355 12.0209 11.3435C12.2673 11.3442 12.3795 11.2811 12.4599 11.0314C13.517 7.74563 14.5981 4.46648 15.6487 1.17871C15.8439 0.567109 16.1733 0.154063 16.8022 0.000664711C16.9343 6.48513e-07 17.0665 0 17.1986 0ZM5.58416 13.9838C5.57685 14.0084 5.56888 14.0323 5.56158 14.0569C5.6665 14.1346 5.77076 14.2129 5.87568 14.2893C7.77423 15.6692 9.67345 17.0485 11.5713 18.4284C12.3483 18.9929 12.4984 19.4584 12.2049 20.3602C11.4691 22.62 10.734 24.8804 10.0002 27.1409C9.96763 27.2418 9.94506 27.3461 9.89658 27.528C10.0633 27.4098 10.1669 27.3375 10.2691 27.2631C12.1949 25.8646 14.1207 24.4654 16.0465 23.0675C16.7358 22.5668 17.2617 22.5655 17.945 23.0622C19.8708 24.4607 21.7966 25.8593 23.7224 27.2578C23.8273 27.3341 23.9342 27.4079 24.1148 27.5354C24.0537 27.3315 24.0192 27.2086 23.98 27.0871C23.2422 24.816 22.5031 22.5456 21.7667 20.2745C21.5117 19.4876 21.677 18.9756 22.3411 18.4921C24.2749 17.0857 26.2093 15.6812 28.1437 14.2754C28.2453 14.2016 28.3442 14.1246 28.4445 14.0496C28.4372 14.0277 28.4299 14.0057 28.4226 13.9838C28.3051 13.9838 28.1882 13.9838 28.0706 13.9838C25.6674 13.9838 23.2642 13.9852 20.8609 13.9832C20.0534 13.9825 19.6218 13.6631 19.3714 12.8954C18.625 10.6044 17.8806 8.31273 17.1342 6.02172C17.1003 5.91813 17.0592 5.81785 16.9928 5.63656C16.927 5.83645 16.8925 5.9407 16.8586 6.0443C16.1235 8.3041 15.389 10.5646 14.6533 12.8244C14.3717 13.6896 13.9646 13.9832 13.0482 13.9838C10.6782 13.9845 8.30814 13.9838 5.9381 13.9838C5.82056 13.9838 5.70236 13.9838 5.58416 13.9838Z" fill="#446EE7"/>
<path d="M18.3228 30.9865C18.3228 31.4925 18.3295 31.9985 18.3215 32.5045C18.3082 33.2888 17.7458 33.8652 17.0047 33.8672C16.2636 33.8698 15.6885 33.2934 15.6805 32.5125C15.6699 31.4898 15.6706 30.4665 15.6799 29.4432C15.6872 28.6616 16.2549 28.0852 16.996 28.0819C17.7358 28.0785 18.3076 28.6563 18.3215 29.4346C18.3308 29.9525 18.3228 30.4692 18.3228 30.9865Z" fill="#446EE7"/>
<path d="M0.114902 21.0953C0.13748 20.6603 0.380527 20.2187 0.907129 20.0321C1.97295 19.6549 3.0494 19.3017 4.13514 18.9856C4.79522 18.7937 5.47256 19.2094 5.6751 19.8495C5.88229 20.5043 5.5901 21.2208 4.93932 21.4552C3.87549 21.8384 2.79905 22.1923 1.71198 22.5024C0.88721 22.7375 0.108926 22.0768 0.114902 21.0953Z" fill="#446EE7"/>
<path d="M33.8858 21.0933C33.8911 22.0781 33.1135 22.7362 32.2887 22.5024C31.2116 22.197 30.1458 21.8457 29.0906 21.4711C28.4226 21.2341 28.1158 20.5136 28.3269 19.8482C28.5335 19.1967 29.2181 18.791 29.9001 18.9902C30.9646 19.301 32.0205 19.6463 33.0664 20.0155C33.6029 20.2054 33.8646 20.6451 33.8858 21.0933Z" fill="#446EE7"/>
<path d="M23.4082 5.44135C23.5078 5.19033 23.5643 4.9101 23.7143 4.69428C24.3107 3.83432 24.9249 2.98631 25.5551 2.15092C26.0226 1.53201 26.8075 1.42244 27.4032 1.85541C27.9889 2.28174 28.1237 3.07795 27.6828 3.70748C27.0825 4.56478 26.4649 5.41014 25.8373 6.24752C25.4688 6.73959 24.8844 6.89963 24.3339 6.70439C23.8046 6.5158 23.4666 6.03369 23.4082 5.44135Z" fill="#446EE7"/>
<path d="M10.5766 5.49181C10.5182 6.04962 10.1954 6.50451 9.6894 6.69443C9.17342 6.88833 8.58175 6.77478 8.24772 6.33783C7.55976 5.43603 6.8864 4.52162 6.24823 3.58396C5.86905 3.02681 6.04768 2.27044 6.57694 1.87001C7.12612 1.45431 7.90573 1.48884 8.33538 2.0367C9.04792 2.94646 9.71198 3.89474 10.3727 4.84302C10.4969 5.02099 10.5115 5.274 10.5766 5.49181Z" fill="#446EE7"/>
</g>
<defs>
<clipPath id="clip0_2115_231">
<rect width="34" height="34" fill="white"/>
</clipPath>
</defs>
</svg>
