<svg width="34" height="34" viewBox="0 0 34 34" fill="none" xmlns="http://www.w3.org/2000/svg">
<path d="M0.0300293 11.4246C0.0645605 11.344 0.0982049 11.2626 0.133622 11.182C0.386851 10.6003 0.988934 10.2674 1.58393 10.3798C2.21169 10.4984 2.66149 11.0155 2.67919 11.6592C2.6907 12.0993 2.68185 12.5402 2.68185 13.0192C2.83768 13.0192 2.96607 13.0192 3.09534 13.0192C6.40946 13.0192 9.72357 13.029 13.0386 13.0139C14.2914 13.0086 15.3477 13.4256 16.2119 14.3314C16.4625 14.5935 16.7086 14.86 16.9698 15.138C17.1522 14.9698 17.2859 14.8414 17.4249 14.7183C18.6937 13.5947 20.1768 13.0237 21.8697 13.021C24.8748 13.0157 27.8799 13.0192 30.885 13.0192C31.0161 13.0192 31.1471 13.0192 31.3224 13.0192C31.3224 12.6057 31.3215 12.2117 31.3224 11.8177C31.3251 10.9562 31.8767 10.3568 32.6594 10.363C33.4297 10.3692 33.9734 10.9615 33.9734 11.8071C33.9751 16.158 33.9751 20.509 33.9734 24.8599C33.9734 25.7028 33.4271 26.2987 32.6585 26.304C31.8776 26.3102 31.3251 25.709 31.3224 24.8484C31.3215 24.4624 31.3224 24.0763 31.3224 23.6681C31.2073 23.6602 31.1117 23.6487 31.0161 23.6487C30.1652 23.6469 29.3143 23.6549 28.4643 23.6433C28.2483 23.6407 28.0977 23.7053 27.9454 23.8594C26.1534 25.6647 24.3542 27.4621 22.5586 29.2649C21.3783 30.4495 19.9838 31.2322 18.3254 31.4988C15.7559 31.9122 13.499 31.2314 11.629 29.4233C9.75367 27.6091 7.93148 25.7391 6.09247 23.8868C5.92425 23.7177 5.76222 23.638 5.51784 23.6416C4.59081 23.6566 3.66289 23.6478 2.68362 23.6478C2.68362 24.1091 2.6969 24.558 2.68008 25.006C2.6606 25.5505 2.39763 25.9552 1.90003 26.1818C1.39977 26.4094 0.910129 26.3483 0.512577 25.9791C0.304504 25.7852 0.190287 25.4912 0.0326827 25.2415C0.0300265 20.6365 0.0300293 16.0305 0.0300293 11.4246ZM2.69424 20.9906C3.87716 20.9906 5.02555 21.0048 6.17305 20.9844C6.70872 20.9747 7.12399 21.1597 7.49852 21.5378C9.47565 23.5335 11.4528 25.5284 13.4521 27.502C15.4416 29.4658 18.5538 29.4543 20.5558 27.5011C21.0861 26.984 21.6005 26.4501 22.1291 25.9313C22.4426 25.6231 22.7693 25.3292 23.0695 25.0467C22.2212 24.1967 21.427 23.4016 20.6124 22.5853C20.5327 22.6313 20.4194 22.6968 20.3061 22.7624C17.764 24.2268 14.527 23.8355 12.4267 21.8105C11.7627 21.1704 11.7476 20.3947 12.3949 19.7413C13.2121 18.9161 14.0347 18.0971 14.8546 17.2745C14.9378 17.1904 15.0166 17.101 15.1379 16.9708C14.8501 16.699 14.565 16.4546 14.3091 16.1828C13.9674 15.8207 13.5645 15.671 13.0678 15.6719C9.73154 15.6808 6.39529 15.6764 3.05904 15.6764C2.94128 15.6764 2.8244 15.6764 2.69424 15.6764C2.69424 17.4605 2.69424 19.2056 2.69424 20.9906ZM24.9634 23.1059C25.5362 22.5251 26.0737 21.9841 26.6067 21.4387C26.9095 21.1288 27.2708 20.9844 27.7055 20.988C28.7884 20.9959 29.8703 20.9906 30.9532 20.9906C31.0692 20.9906 31.1861 20.9906 31.3029 20.9906C31.3029 19.1977 31.3029 17.4534 31.3029 15.6764C31.2135 15.6764 31.1391 15.6764 31.0648 15.6764C27.9941 15.6764 24.9235 15.6728 21.8529 15.679C20.7266 15.6808 19.7722 16.1067 18.9779 16.9053C17.8234 18.0652 16.6661 19.2216 15.5107 20.3806C15.446 20.4461 15.3911 20.5214 15.3265 20.5975C16.7281 21.3067 18.4963 21.026 19.6996 19.9264C20.4486 19.2419 21.1233 19.257 21.8432 19.9759C22.4842 20.617 23.1244 21.2589 23.7645 21.9008C24.1523 22.2913 24.5401 22.6818 24.9634 23.1059Z" fill="#446EE7"/>
<path d="M9.20201 5.03278C9.35784 5.10804 9.6943 5.18507 9.90945 5.3896C10.8533 6.2883 11.775 7.21179 12.6773 8.1521C13.1793 8.6745 13.1306 9.48111 12.625 9.97871C12.1274 10.4683 11.3385 10.5162 10.8268 10.0239C9.87935 9.11189 8.95144 8.18043 8.043 7.22949C7.65873 6.82752 7.61091 6.31752 7.85175 5.8084C8.08727 5.31257 8.50076 5.07616 9.20201 5.03278Z" fill="#446EE7"/>
<path d="M22.4355 10.3772C21.7475 10.3267 21.3367 10.0867 21.1056 9.58913C20.8745 9.09064 20.9161 8.58595 21.2889 8.19549C22.2115 7.22861 23.1536 6.27856 24.1213 5.35684C24.6207 4.88137 25.4078 4.95309 25.8922 5.4383C26.3756 5.92262 26.4447 6.70976 25.9683 7.21267C25.0492 8.1822 24.0992 9.12517 23.1323 10.0478C22.926 10.2443 22.5922 10.3063 22.4355 10.3772Z" fill="#446EE7"/>
<path d="M18.3245 5.0416C18.3245 5.48343 18.3316 5.92614 18.3227 6.36796C18.3086 7.12499 17.7348 7.70051 17.0035 7.70317C16.2721 7.70582 15.6851 7.12942 15.6762 6.3777C15.6656 5.49405 15.6665 4.60952 15.6762 3.72499C15.6842 2.96884 16.2624 2.39244 16.9937 2.38978C17.726 2.38712 18.3068 2.95999 18.3227 3.71437C18.3325 4.15707 18.3245 4.59978 18.3245 5.0416Z" fill="#446EE7"/>
</svg>
