<svg width="34" height="34" viewBox="0 0 34 34" fill="none" xmlns="http://www.w3.org/2000/svg">
<g clip-path="url(#clip0_2115_222)">
<path d="M16.7703 0C16.9469 0 17.1229 0 17.2995 0C17.518 0.100938 17.7392 0.197226 17.9543 0.304804C22.8916 2.7718 27.8269 5.24277 32.7669 7.70445C33.2138 7.92691 33.6361 8.16 33.9038 8.60027C33.9038 8.95289 33.9038 9.30617 33.9038 9.65879C33.6322 10.1123 33.1945 10.3454 32.739 10.5699C31.2117 11.3223 29.6903 12.0879 28.1669 12.8489C28.0653 12.8994 27.9677 12.9572 27.8302 13.0322C27.967 13.1073 28.0507 13.1571 28.1377 13.2002C29.6704 13.9666 31.2017 14.7369 32.739 15.4946C33.1945 15.719 33.6335 15.9508 33.9038 16.4057C33.9038 16.7583 33.9038 17.1116 33.9038 17.4642C33.6328 17.9184 33.1932 18.1502 32.739 18.3746C31.2123 19.1283 29.6903 19.8933 28.1676 20.6543C28.066 20.7048 27.9684 20.7626 27.8309 20.8376C27.9684 20.9133 28.0514 20.9625 28.1384 21.0056C29.671 21.772 31.2024 22.5423 32.7397 23.3C33.1952 23.5244 33.6342 23.7562 33.9044 24.2111C33.9044 24.5637 33.9044 24.917 33.9044 25.2696C33.6428 25.508 33.4183 25.8201 33.1142 25.9735C28.0036 28.548 22.8823 31.1014 17.7664 33.666C17.261 33.919 16.7895 33.9123 16.2855 33.6567C14.4109 32.7064 12.5283 31.7707 10.6483 30.8304C7.42958 29.2207 4.21087 27.6104 0.990166 26.0047C0.632237 25.8261 0.33474 25.6003 0.188646 25.2151C-0.0623692 24.553 0.214543 23.8724 0.892551 23.5311C2.56333 22.689 4.23876 21.8563 5.91154 21.0182C6.01247 20.9678 6.10876 20.9087 6.24622 20.8323C6.08419 20.748 5.97794 20.6909 5.87103 20.6371C4.23677 19.8203 2.60384 19.0015 0.96759 18.1887C0.608333 18.01 0.318802 17.7736 0.180013 17.3858C-0.0583852 16.7198 0.227162 16.0584 0.915131 15.7124C2.57662 14.877 4.24208 14.0482 5.90489 13.2155C6.00649 13.1644 6.10411 13.1046 6.24224 13.0269C6.08818 12.9452 5.98458 12.8875 5.87833 12.8343C4.2547 12.0215 2.63372 11.2027 1.00411 10.4005C0.46423 10.1349 0.108291 9.75641 0.106299 9.13352C0.104307 8.51129 0.45294 8.12945 0.99415 7.86051C4.01032 6.36238 7.01919 4.85031 10.0334 3.34687C12.2766 2.22859 14.5244 1.11562 16.7703 0ZM29.669 9.13883C29.5455 9.06777 29.4831 9.02727 29.4174 8.99406C25.3712 6.97 21.3244 4.94727 17.2809 2.91789C17.0864 2.82027 16.9403 2.84684 16.7597 2.93715C12.7447 4.94926 8.72716 6.95605 4.71091 8.96484C4.61993 9.01 4.5356 9.06777 4.41939 9.13617C4.52232 9.19328 4.5781 9.22781 4.63654 9.25703C8.69263 11.2851 12.7494 13.3111 16.8028 15.3452C17.002 15.4448 17.1475 15.4036 17.3234 15.3153C19.9797 13.9825 22.6386 12.6537 25.2968 11.3243C26.7339 10.6051 28.1709 9.88723 29.669 9.13883ZM4.40146 16.927C4.50904 16.99 4.55353 17.0199 4.60068 17.0438C8.67536 19.0812 12.7494 21.1192 16.8294 23.1466C16.9496 23.2063 17.1554 23.1937 17.2803 23.132C21.3297 21.1172 25.3739 19.0925 29.4187 17.0684C29.4897 17.0332 29.5522 16.9814 29.6504 16.9157C28.1204 16.1513 26.6316 15.4142 25.1508 14.6612C24.9309 14.5489 24.7643 14.545 24.5418 14.6572C22.3019 15.7868 20.0521 16.8971 17.8135 18.0306C17.2736 18.3042 16.7836 18.2989 16.2443 18.0253C14.0071 16.8898 11.7573 15.7788 9.51739 14.6492C9.30622 14.543 9.14286 14.5436 8.937 14.6539C8.43232 14.9235 7.91501 15.1679 7.40302 15.4235C6.42087 15.9149 5.44005 16.407 4.40146 16.927ZM4.40079 24.7337C4.5097 24.7974 4.55419 24.8273 4.602 24.8512C8.67669 26.8886 12.7507 28.9266 16.8307 30.9533C16.9509 31.013 17.1568 30.9998 17.2809 30.9373C21.3204 28.9272 25.3546 26.9065 29.3888 24.8864C29.4685 24.8466 29.5429 24.7954 29.6597 24.7264C28.1184 23.9561 26.6296 23.2189 25.1488 22.4666C24.9283 22.3543 24.7623 22.3517 24.5398 22.4639C22.2999 23.5935 20.0501 24.7038 17.8115 25.8367C17.271 26.1103 16.7816 26.1036 16.2424 25.83C14.0144 24.6998 11.7739 23.5955 9.54462 22.4686C9.30954 22.3497 9.13224 22.351 8.90513 22.4745C8.41239 22.7421 7.90239 22.9786 7.40103 23.2296C6.42021 23.721 5.43872 24.213 4.40079 24.7337Z" fill="#446EE7"/>
</g>
<defs>
<clipPath id="clip0_2115_222">
<rect width="34" height="34" fill="white"/>
</clipPath>
</defs>
</svg>
