<svg width="34" height="34" viewBox="0 0 34 34" fill="none" xmlns="http://www.w3.org/2000/svg">
<g clip-path="url(#clip0_2115_239)">
<path d="M3.74624 34C2.95202 33.7308 2.66868 33.1677 2.67665 32.3434C2.70233 29.665 2.6864 26.9866 2.6864 24.3082C2.6864 24.1878 2.6864 24.0683 2.6864 23.9054C2.27202 23.9054 1.8789 23.9009 1.48577 23.9063C0.889887 23.9151 0.428585 23.6858 0.168272 23.1377C-0.0938108 22.5852 0.0407703 22.0876 0.420614 21.6316C2.58634 19.032 4.74765 16.4298 6.91338 13.8302C7.53405 13.0856 8.44868 13.09 9.07379 13.8408C11.2324 16.4316 13.3867 19.0267 15.5453 21.6166C15.934 22.0823 16.0765 22.5879 15.8038 23.151C15.5391 23.6973 15.0734 23.9195 14.4784 23.908C14.0941 23.9001 13.7107 23.9063 13.3096 23.9063C13.3096 26.3881 13.3096 28.8407 13.3096 31.3181C15.7613 31.3181 18.2175 31.3181 20.694 31.3181C20.694 30.631 20.694 29.9421 20.694 29.2179C20.2796 29.2179 19.8741 29.2179 19.4677 29.2179C18.8842 29.2179 18.4397 28.9753 18.1909 28.4387C17.9457 27.9119 18.0528 27.4231 18.4158 26.9866C20.5993 24.3587 22.7818 21.7308 24.9714 19.1073C25.5549 18.4087 26.4837 18.4114 27.0681 19.1117C29.2498 21.7264 31.427 24.3445 33.5981 26.9689C33.7557 27.1593 33.8486 27.4045 33.9708 27.6241C33.9708 27.8012 33.9708 27.9783 33.9708 28.1554C33.6999 28.9469 33.1403 29.2781 32.3186 29.2214C31.9937 29.1993 31.6652 29.2179 31.3199 29.2179C31.3199 30.2892 31.2933 31.3172 31.3278 32.3434C31.3553 33.1677 31.0516 33.73 30.2592 33.9991C21.42 34 12.5836 34 3.74624 34ZM5.33645 31.3199C7.12588 31.3199 8.87368 31.3199 10.6392 31.3199C10.6392 31.1649 10.6392 31.033 10.6392 30.9011C10.6392 28.158 10.6383 25.4159 10.6401 22.6729C10.6401 21.969 10.9562 21.5307 11.6132 21.3005C11.6601 21.2845 11.7017 21.2544 11.7637 21.2217C10.5011 19.7041 9.25441 18.2059 7.98827 16.6839C6.71061 18.221 5.46483 19.7182 4.21285 21.2243C5.14254 21.6263 5.33645 21.9229 5.33645 22.9066C5.33645 25.3619 5.33645 27.8171 5.33645 30.2724C5.33645 30.6142 5.33645 30.9559 5.33645 31.3199ZM28.6672 31.3305C28.6672 30.167 28.6636 29.0399 28.6689 27.9137C28.6716 27.2974 29.0089 26.8352 29.5818 26.628C29.6473 26.6041 29.7093 26.5714 29.7916 26.5351C28.5255 25.0139 27.2788 23.5167 26.0145 21.9973C24.7359 23.5353 23.4919 25.0325 22.239 26.5386C23.167 26.9344 23.3635 27.2363 23.3635 28.2209C23.3635 29.1276 23.3635 30.0342 23.3635 30.9409C23.3635 31.0693 23.3635 31.1968 23.3635 31.3314C25.1485 31.3305 26.8884 31.3305 28.6672 31.3305Z" fill="#446EE7"/>
<path d="M17.2666 0C17.5791 0.217812 17.9324 0.394011 18.1989 0.65875C20.7241 3.16802 23.2334 5.69323 25.7506 8.21047C26.0163 8.47609 26.2252 8.76385 26.2713 9.14635C26.3633 9.90781 25.7799 10.5905 24.9971 10.6197C24.5571 10.6365 24.1162 10.6223 23.6292 10.6223C23.6292 10.7587 23.6292 10.8756 23.6292 10.9924C23.6292 12.7854 23.6345 14.5784 23.6265 16.3705C23.6221 17.3223 22.7491 17.9563 21.8761 17.6596C21.3616 17.4852 20.9853 17.0106 20.9836 16.4599C20.9747 14.0586 20.9747 11.6574 20.9844 9.25526C20.9871 8.69656 21.3067 8.31318 21.7574 8.07677C20.161 6.47682 18.5708 4.88396 17.0116 3.3212C15.4541 4.8813 13.8586 6.47948 12.2578 8.08385C12.8793 8.38844 13.0653 8.95687 13.0299 9.6537C13.006 10.1283 13.0316 10.6055 13.0237 11.081C13.0104 11.8416 12.4393 12.4153 11.7053 12.418C10.9704 12.4206 10.3949 11.8469 10.3754 11.0916C10.3718 10.9499 10.3745 10.8074 10.3745 10.625C9.95835 10.625 9.56523 10.6268 9.17122 10.625C8.51512 10.6223 8.03523 10.3319 7.82627 9.79536C7.59872 9.21276 7.75543 8.71338 8.18486 8.28307C10.7933 5.66932 13.3991 3.05292 16.0173 0.448021C16.2129 0.253229 16.4954 0.146979 16.7371 0C16.9133 0 17.0904 0 17.2666 0Z" fill="#446EE7"/>
</g>
<defs>
<clipPath id="clip0_2115_239">
<rect width="34" height="34" fill="white"/>
</clipPath>
</defs>
</svg>
